<?xml version="1.0" encoding="UTF-8"?>
<svg xmlns="http://www.w3.org/2000/svg" xmlns:xlink="http://www.w3.org/1999/xlink" width="150px" height="150px" viewBox="0 0 150 150" version="1.1">
<defs>
<filter id="alpha" filterUnits="objectBoundingBox" x="0%" y="0%" width="100%" height="100%">
  <feColorMatrix type="matrix" in="SourceGraphic" values="0 0 0 0 1 0 0 0 0 1 0 0 0 0 1 0 0 0 1 0"/>
</filter>
<mask id="mask0">
  <g filter="url(#alpha)">
<rect x="0" y="0" width="150" height="150" style="fill:rgb(0%,0%,0%);fill-opacity:0.301961;stroke:none;"/>
  </g>
</mask>
<clipPath id="clip1">
  <rect x="0" y="0" width="150" height="150"/>
</clipPath>
<g id="surface5" clip-path="url(#clip1)">
<path style=" stroke:none;fill-rule:nonzero;fill:rgb(70.196078%,8.235294%,40%);fill-opacity:1;" d="M 77.308594 122.15625 C 77.625 121.679688 78.097656 121.3125 78.382812 120.816406 C 78.984375 119.773438 78.265625 118.753906 78.566406 117.691406 C 78.726562 117.226562 79.074219 116.855469 79.523438 116.660156 C 79.96875 116.476562 80.441406 116.355469 80.917969 116.296875 C 81.175781 116.269531 81.425781 116.199219 81.65625 116.089844 C 81.933594 115.933594 82.015625 115.660156 82.191406 115.417969 C 82.390625 115.15625 82.617188 114.914062 82.867188 114.699219 C 83.351562 114.207031 84.007812 113.921875 84.695312 113.90625 C 86.148438 113.972656 86.109375 115.222656 85.695312 116.167969 C 85.28125 117.113281 85.167969 117.421875 86.074219 118.417969 C 86.980469 119.417969 86.972656 120.621094 85.902344 121.300781 C 84.832031 121.984375 84.101562 122.074219 84.542969 123.382812 C 84.925781 124.558594 85.160156 125.554688 84.078125 126.808594 C 83.390625 127.675781 82.335938 128.171875 81.226562 128.144531 C 79.0625 128.054688 77.296875 126.300781 76.9375 124.214844 C 76.808594 123.539062 76.925781 122.839844 77.265625 122.242188 Z M 77.308594 122.15625 "/>
</g>
<mask id="mask1">
  <g filter="url(#alpha)">
<rect x="0" y="0" width="150" height="150" style="fill:rgb(0%,0%,0%);fill-opacity:0.301961;stroke:none;"/>
  </g>
</mask>
<clipPath id="clip2">
  <rect x="0" y="0" width="150" height="150"/>
</clipPath>
<g id="surface8" clip-path="url(#clip2)">
<path style=" stroke:none;fill-rule:nonzero;fill:rgb(0%,0%,0%);fill-opacity:1;" d="M 77.308594 122.15625 C 77.625 121.679688 78.097656 121.3125 78.382812 120.816406 C 78.984375 119.773438 78.265625 118.753906 78.566406 117.691406 C 78.726562 117.226562 79.074219 116.855469 79.523438 116.660156 C 79.96875 116.476562 80.441406 116.355469 80.917969 116.296875 C 81.175781 116.269531 81.425781 116.199219 81.65625 116.089844 C 81.933594 115.933594 82.015625 115.660156 82.191406 115.417969 C 82.390625 115.15625 82.617188 114.914062 82.867188 114.699219 C 83.351562 114.207031 84.007812 113.921875 84.695312 113.90625 C 86.148438 113.972656 86.109375 115.222656 85.695312 116.167969 C 85.28125 117.113281 85.167969 117.421875 86.074219 118.417969 C 86.980469 119.417969 86.972656 120.621094 85.902344 121.300781 C 84.832031 121.984375 84.101562 122.074219 84.542969 123.382812 C 84.925781 124.558594 85.160156 125.554688 84.078125 126.808594 C 83.390625 127.675781 82.335938 128.171875 81.226562 128.144531 C 79.0625 128.054688 77.296875 126.300781 76.9375 124.214844 C 76.808594 123.539062 76.925781 122.839844 77.265625 122.242188 Z M 77.308594 122.15625 "/>
</g>
<mask id="mask2">
  <g filter="url(#alpha)">
<rect x="0" y="0" width="150" height="150" style="fill:rgb(0%,0%,0%);fill-opacity:0.2;stroke:none;"/>
  </g>
</mask>
<clipPath id="clip3">
  <rect x="0" y="0" width="150" height="150"/>
</clipPath>
<g id="surface11" clip-path="url(#clip3)">
<path style=" stroke:none;fill-rule:nonzero;fill:rgb(100%,100%,100%);fill-opacity:1;" d="M 23.292969 41.980469 C 24.117188 41.453125 25.085938 41.195312 26.066406 41.234375 L 26.066406 41.269531 L 23.308594 48.347656 L 18.511719 47.933594 C 19.457031 45.480469 21.242188 43.164062 23.292969 41.980469 Z M 23.292969 41.980469 "/>
</g>
<mask id="mask3">
  <g filter="url(#alpha)">
<rect x="0" y="0" width="150" height="150" style="fill:rgb(0%,0%,0%);fill-opacity:0.101961;stroke:none;"/>
  </g>
</mask>
<clipPath id="clip4">
  <rect x="0" y="0" width="150" height="150"/>
</clipPath>
<g id="surface14" clip-path="url(#clip4)">
<path style=" stroke:none;fill-rule:nonzero;fill:rgb(0%,0%,0%);fill-opacity:1;" d="M 26.074219 41.222656 C 27.730469 41.371094 28.84375 42.785156 28.851562 45.140625 C 28.851562 48.660156 26.386719 52.941406 23.328125 54.714844 L 23.308594 48.34375 L 26.050781 41.257812 Z M 26.074219 41.222656 "/>
</g>
<mask id="mask4">
  <g filter="url(#alpha)">
<rect x="0" y="0" width="150" height="150" style="fill:rgb(0%,0%,0%);fill-opacity:0.2;stroke:none;"/>
  </g>
</mask>
<clipPath id="clip5">
  <rect x="0" y="0" width="150" height="150"/>
</clipPath>
<g id="surface17" clip-path="url(#clip5)">
<path style=" stroke:none;fill-rule:nonzero;fill:rgb(0%,0%,0%);fill-opacity:1;" d="M 122.699219 78.230469 L 122.429688 71.773438 C 124.097656 71.773438 125.648438 70.523438 126.824219 69.34375 C 125.695312 71.359375 123.5 72.253906 123.5 72.253906 Z M 122.699219 78.230469 "/>
</g>
<mask id="mask5">
  <g filter="url(#alpha)">
<rect x="0" y="0" width="150" height="150" style="fill:rgb(0%,0%,0%);fill-opacity:0.301961;stroke:none;"/>
  </g>
</mask>
<clipPath id="clip6">
  <rect x="0" y="0" width="150" height="150"/>
</clipPath>
<g id="surface20" clip-path="url(#clip6)">
<path style=" stroke:none;fill-rule:nonzero;fill:rgb(0%,0%,0%);fill-opacity:1;" d="M 82.859375 56.25 L 82.410156 59.960938 L 82.597656 64.515625 L 83.429688 57.015625 C 85.351562 56.261719 85.597656 55.214844 85.597656 55.214844 C 84.789062 55.785156 83.84375 56.140625 82.859375 56.25 Z M 82.859375 56.25 "/>
</g>
<mask id="mask6">
  <g filter="url(#alpha)">
<rect x="0" y="0" width="150" height="150" style="fill:rgb(0%,0%,0%);fill-opacity:0.301961;stroke:none;"/>
  </g>
</mask>
<clipPath id="clip7">
  <rect x="0" y="0" width="150" height="150"/>
</clipPath>
<g id="surface23" clip-path="url(#clip7)">
<path style=" stroke:none;fill-rule:nonzero;fill:rgb(0%,0%,0%);fill-opacity:1;" d="M 83.101562 31.964844 L 84.03125 32.417969 C 83.871094 32.640625 83.578125 32.722656 83.324219 32.617188 C 83.105469 32.480469 83.011719 32.207031 83.101562 31.964844 Z M 83.101562 31.964844 "/>
</g>
<mask id="mask7">
  <g filter="url(#alpha)">
<rect x="0" y="0" width="150" height="150" style="fill:rgb(0%,0%,0%);fill-opacity:0.301961;stroke:none;"/>
  </g>
</mask>
<clipPath id="clip8">
  <rect x="0" y="0" width="150" height="150"/>
</clipPath>
<g id="surface26" clip-path="url(#clip8)">
<path style=" stroke:none;fill-rule:nonzero;fill:rgb(0%,0%,0%);fill-opacity:1;" d="M 101.503906 136.769531 L 122.605469 124.511719 L 122.605469 107.632812 L 101.503906 119.890625 Z M 101.503906 136.769531 "/>
</g>
<mask id="mask8">
  <g filter="url(#alpha)">
<rect x="0" y="0" width="150" height="150" style="fill:rgb(0%,0%,0%);fill-opacity:0.301961;stroke:none;"/>
  </g>
</mask>
<clipPath id="clip9">
  <rect x="0" y="0" width="150" height="150"/>
</clipPath>
<g id="surface29" clip-path="url(#clip9)">
<path style=" stroke:none;fill-rule:nonzero;fill:rgb(100%,100%,100%);fill-opacity:1;" d="M 85.828125 112.160156 L 85.828125 109.984375 L 101.175781 118.730469 L 101.175781 121.019531 Z M 85.828125 112.160156 "/>
</g>
<mask id="mask9">
  <g filter="url(#alpha)">
<rect x="0" y="0" width="150" height="150" style="fill:rgb(0%,0%,0%);fill-opacity:0.2;stroke:none;"/>
  </g>
</mask>
<clipPath id="clip10">
  <rect x="0" y="0" width="150" height="150"/>
</clipPath>
<g id="surface32" clip-path="url(#clip10)">
<path style=" stroke:none;fill-rule:nonzero;fill:rgb(0%,0%,0%);fill-opacity:1;" d="M 101.175781 121.019531 L 124.222656 107.632812 L 124.222656 105.34375 L 101.175781 118.730469 Z M 101.175781 121.019531 "/>
</g>
<mask id="mask10">
  <g filter="url(#alpha)">
<rect x="0" y="0" width="150" height="150" style="fill:rgb(0%,0%,0%);fill-opacity:0.2;stroke:none;"/>
  </g>
</mask>
<clipPath id="clip11">
  <rect x="0" y="0" width="150" height="150"/>
</clipPath>
<g id="surface35" clip-path="url(#clip11)">
<path style=" stroke:none;fill-rule:nonzero;fill:rgb(70.196078%,8.235294%,40%);fill-opacity:1;" d="M 14.746094 36 L 99.566406 96.835938 L 103.625 94.480469 L 59.707031 9.851562 Z M 14.746094 36 "/>
<path style=" stroke:none;fill-rule:nonzero;fill:rgb(70.196078%,8.235294%,40%);fill-opacity:1;" d="M 99.566406 96.835938 L 99.566406 100.46875 L 14.746094 79.949219 L 14.746094 36 Z M 99.566406 96.835938 "/>
</g>
<mask id="mask11">
  <g filter="url(#alpha)">
<rect x="0" y="0" width="150" height="150" style="fill:rgb(0%,0%,0%);fill-opacity:0.2;stroke:none;"/>
  </g>
</mask>
<clipPath id="clip12">
  <rect x="0" y="0" width="150" height="150"/>
</clipPath>
<g id="surface38" clip-path="url(#clip12)">
<path style=" stroke:none;fill-rule:nonzero;fill:rgb(0%,0%,0%);fill-opacity:1;" d="M 46.703125 94.582031 L 46.984375 96.382812 L 46.832031 98.78125 L 46.265625 95.035156 C 45.257812 94.902344 44.359375 94.328125 43.816406 93.46875 C 44.671875 94.070312 45.664062 94.453125 46.703125 94.582031 Z M 46.703125 94.582031 "/>
</g>
</defs>
<g id="surface1">
<path style=" stroke:none;fill-rule:nonzero;fill:rgb(94.117647%,94.117647%,94.117647%);fill-opacity:1;" d="M 123.078125 77.398438 C 149.800781 92.828125 149.941406 117.847656 123.394531 133.277344 C 96.84375 148.710938 53.648438 148.707031 26.925781 133.277344 C 0.199219 117.847656 0.0585938 92.820312 26.605469 77.398438 C 53.15625 61.980469 96.351562 61.960938 123.078125 77.398438 Z M 123.078125 77.398438 "/>
<path style=" stroke:none;fill-rule:nonzero;fill:rgb(87.843137%,87.843137%,87.843137%);fill-opacity:1;" d="M 65.398438 70.253906 L 62.398438 68.523438 C 61.75 68.148438 60.949219 68.148438 60.300781 68.523438 L 39.988281 80.25 C 35.847656 79.636719 31.289062 80.25 28.050781 82.132812 C 24.808594 84.019531 23.761719 86.632812 24.804688 89.015625 L 11.445312 96.730469 C 11.164062 96.890625 10.992188 97.1875 10.992188 97.507812 C 10.992188 97.832031 11.164062 98.128906 11.445312 98.289062 L 14.445312 100.015625 C 15.09375 100.390625 15.894531 100.390625 16.546875 100.015625 L 28.992188 92.832031 C 33.914062 95.1875 41.199219 95.035156 45.792969 92.371094 C 50.386719 89.707031 50.617188 85.519531 46.585938 82.679688 L 65.398438 71.8125 C 65.675781 71.648438 65.847656 71.351562 65.847656 71.03125 C 65.847656 70.710938 65.675781 70.414062 65.398438 70.253906 Z M 65.398438 70.253906 "/>
<path style=" stroke:none;fill-rule:nonzero;fill:rgb(88.235294%,88.235294%,88.235294%);fill-opacity:1;" d="M 90.152344 81.148438 C 95.046875 83.972656 95.074219 88.558594 90.210938 91.382812 C 85.347656 94.210938 77.433594 94.210938 72.535156 91.382812 C 67.640625 88.558594 67.617188 83.972656 72.480469 81.148438 C 77.34375 78.320312 85.257812 78.320312 90.152344 81.148438 Z M 90.152344 81.148438 "/>
<path style=" stroke:none;fill-rule:nonzero;fill:rgb(88.235294%,88.235294%,88.235294%);fill-opacity:1;" d="M 126.332031 96.527344 C 131.230469 99.355469 131.253906 103.933594 126.390625 106.765625 C 121.527344 109.59375 113.617188 109.589844 108.71875 106.765625 C 103.824219 103.9375 103.796875 99.355469 108.660156 96.527344 C 113.523438 93.703125 121.4375 93.699219 126.332031 96.527344 Z M 126.332031 96.527344 "/>
<path style=" stroke:none;fill-rule:nonzero;fill:rgb(88.235294%,88.235294%,88.235294%);fill-opacity:1;" d="M 57.554688 117.253906 C 62.449219 120.082031 62.476562 124.664062 57.613281 127.492188 C 52.746094 130.316406 44.839844 130.316406 39.941406 127.492188 C 35.046875 124.664062 35.019531 120.082031 39.886719 117.253906 C 44.75 114.429688 52.660156 114.429688 57.554688 117.253906 Z M 57.554688 117.253906 "/>
<path style=" stroke:none;fill-rule:nonzero;fill:rgb(21.568627%,27.843137%,30.980392%);fill-opacity:1;" d="M 75.113281 135.261719 C 72.964844 133.066406 71.699219 126.511719 73.796875 124.761719 L 84.476562 124.761719 C 86.578125 126.511719 85.3125 133.046875 83.164062 135.261719 L 83.101562 135.320312 L 83.027344 135.394531 C 82.96875 135.453125 82.902344 135.511719 82.835938 135.566406 L 82.78125 135.609375 C 82.730469 135.648438 82.675781 135.691406 82.621094 135.730469 C 82.5625 135.769531 82.433594 135.855469 82.339844 135.910156 C 80.570312 136.929688 77.703125 136.929688 75.933594 135.910156 C 75.835938 135.851562 75.742188 135.792969 75.652344 135.730469 C 75.5625 135.664062 75.550781 135.652344 75.5 135.613281 L 75.4375 135.5625 C 75.367188 135.511719 75.308594 135.453125 75.25 135.398438 Z M 75.113281 135.261719 "/>
<path style=" stroke:none;fill-rule:nonzero;fill:rgb(27.058824%,35.294118%,39.215686%);fill-opacity:1;" d="M 83.539062 124.070312 C 85.976562 125.476562 85.976562 127.761719 83.539062 129.171875 C 81.097656 130.582031 77.152344 130.578125 74.714844 129.171875 C 72.277344 127.765625 72.277344 125.484375 74.714844 124.070312 C 77.152344 122.65625 81.113281 122.664062 83.539062 124.070312 Z M 83.539062 124.070312 "/>
<path style=" stroke:none;fill-rule:nonzero;fill:rgb(18.039216%,20.784314%,22.745098%);fill-opacity:1;" d="M 82.363281 124.75 C 84.160156 125.78125 84.160156 127.449219 82.363281 128.5 C 80.5625 129.550781 77.671875 129.53125 75.882812 128.5 C 74.089844 127.46875 74.082031 125.800781 75.882812 124.75 C 77.683594 123.699219 80.578125 123.714844 82.363281 124.75 Z M 82.363281 124.75 "/>
<path style=" stroke:none;fill-rule:nonzero;fill:rgb(92.156863%,92.156863%,92.156863%);fill-opacity:1;" d="M 75.898438 126.523438 C 77.699219 125.492188 80.589844 125.492188 82.378906 126.523438 C 82.8125 126.757812 83.179688 127.09375 83.449219 127.507812 C 83.179688 127.917969 82.808594 128.253906 82.375 128.484375 C 80.574219 129.515625 77.683594 129.515625 75.894531 128.484375 C 75.460938 128.253906 75.089844 127.914062 74.824219 127.5 C 75.097656 127.089844 75.464844 126.757812 75.898438 126.523438 Z M 75.898438 126.523438 "/>
<path style=" stroke:none;fill-rule:nonzero;fill:rgb(70.196078%,8.235294%,40%);fill-opacity:1;" d="M 77.308594 122.15625 C 77.625 121.679688 78.097656 121.3125 78.382812 120.816406 C 78.984375 119.773438 78.265625 118.753906 78.566406 117.691406 C 78.726562 117.226562 79.074219 116.855469 79.523438 116.660156 C 79.96875 116.476562 80.441406 116.355469 80.917969 116.296875 C 81.175781 116.269531 81.425781 116.199219 81.65625 116.089844 C 81.933594 115.933594 82.015625 115.660156 82.191406 115.417969 C 82.390625 115.15625 82.617188 114.914062 82.867188 114.699219 C 83.351562 114.207031 84.007812 113.921875 84.695312 113.90625 C 86.148438 113.972656 86.109375 115.222656 85.695312 116.167969 C 85.28125 117.113281 85.167969 117.421875 86.074219 118.417969 C 86.980469 119.417969 86.972656 120.621094 85.902344 121.300781 C 84.832031 121.984375 84.101562 122.074219 84.542969 123.382812 C 84.925781 124.558594 85.160156 125.554688 84.078125 126.808594 C 83.390625 127.675781 82.335938 128.171875 81.226562 128.144531 C 79.0625 128.054688 77.296875 126.300781 76.9375 124.214844 C 76.808594 123.539062 76.925781 122.839844 77.265625 122.242188 Z M 77.308594 122.15625 "/>
<use xlink:href="#surface5" mask="url(#mask0)"/>
<use xlink:href="#surface8" mask="url(#mask1)"/>
<path style=" stroke:none;fill-rule:nonzero;fill:rgb(100%,100%,100%);fill-opacity:1;" d="M 84.707031 119.574219 C 84.691406 119.515625 84.636719 119.484375 84.578125 119.496094 C 83.40625 119.804688 82.269531 120.234375 81.1875 120.777344 C 81.8125 119.113281 82.714844 117.566406 83.859375 116.203125 C 83.878906 116.183594 83.890625 116.15625 83.890625 116.128906 C 83.890625 116.101562 83.878906 116.070312 83.859375 116.050781 C 83.816406 116.011719 83.75 116.011719 83.710938 116.050781 C 82.753906 117.179688 81.96875 118.445312 81.382812 119.800781 C 81.089844 119.164062 80.722656 118.566406 80.285156 118.019531 C 80.265625 118 80.238281 117.988281 80.210938 117.988281 C 80.179688 117.988281 80.152344 118 80.132812 118.019531 C 80.113281 118.039062 80.101562 118.066406 80.101562 118.09375 C 80.101562 118.125 80.113281 118.148438 80.132812 118.171875 C 80.597656 118.753906 80.980469 119.394531 81.273438 120.082031 C 81.148438 120.367188 81.019531 120.664062 80.910156 120.980469 C 80.890625 121 80.882812 121.027344 80.882812 121.054688 C 80.097656 123.191406 79.707031 125.449219 79.730469 127.726562 C 79.730469 127.78125 79.773438 127.832031 79.832031 127.832031 L 79.867188 127.832031 C 79.914062 127.820312 79.945312 127.777344 79.945312 127.730469 C 79.921875 125.480469 80.308594 123.242188 81.085938 121.132812 C 82.378906 120.332031 84.628906 119.742188 84.648438 119.734375 C 84.703125 119.71875 84.738281 119.660156 84.726562 119.605469 C 84.726562 119.605469 84.710938 119.578125 84.707031 119.574219 Z M 84.707031 119.574219 "/>
<path style=" stroke:none;fill-rule:nonzero;fill:rgb(70.196078%,8.235294%,40%);fill-opacity:1;" d="M 79.304688 128.347656 C 79.246094 128.386719 78.746094 128.558594 78.675781 128.578125 C 77.878906 128.8125 76.835938 128.6875 75.894531 128.546875 C 75.277344 128.453125 74.4375 128.324219 73.980469 127.863281 C 73.734375 127.640625 73.648438 127.292969 73.757812 126.980469 C 73.902344 126.679688 74.308594 126.480469 74.34375 126.136719 C 73.667969 125.914062 72.871094 126.089844 72.265625 125.714844 C 71.832031 125.417969 71.5 124.988281 71.328125 124.488281 C 71.183594 124.171875 71.167969 123.816406 71.28125 123.488281 C 71.445312 123.152344 71.882812 123.070312 72.253906 123.015625 C 72.351562 123.007812 72.445312 122.980469 72.535156 122.933594 C 72.621094 122.882812 72.671875 122.785156 72.660156 122.683594 C 72.628906 122.5625 72.503906 122.503906 72.386719 122.464844 C 72.136719 122.386719 71.886719 122.335938 71.636719 122.242188 C 71.390625 122.160156 71.179688 121.996094 71.035156 121.777344 C 70.910156 121.496094 70.871094 121.183594 70.921875 120.878906 C 70.964844 120.355469 71.039062 119.832031 71.140625 119.316406 C 71.214844 118.867188 71.257812 118.417969 71.269531 117.964844 C 72.574219 117.714844 73.917969 117.746094 75.214844 118.054688 C 75.925781 118.199219 76.960938 118.53125 77.273438 119.277344 C 77.355469 119.488281 77.382812 119.71875 77.351562 119.945312 C 77.335938 120.046875 77.3125 120.148438 77.28125 120.246094 C 77.269531 120.304688 77.203125 120.546875 77.359375 120.441406 C 77.390625 120.410156 77.414062 120.375 77.433594 120.335938 L 77.933594 119.335938 C 77.972656 119.234375 78.042969 119.140625 78.132812 119.074219 C 78.332031 118.949219 78.882812 119.050781 79.441406 119.5 C 79.804688 119.820312 80.054688 120.257812 80.144531 120.738281 C 80.261719 121.5 80.234375 122.277344 80.058594 123.03125 L 80.542969 122.351562 C 81.117188 121.558594 81.46875 123.007812 81.492188 123.320312 C 81.546875 124.296875 81.390625 125.269531 81.039062 126.179688 C 80.691406 127.058594 80.085938 127.816406 79.304688 128.347656 Z M 79.304688 128.347656 "/>
<path style=" stroke:none;fill-rule:nonzero;fill:rgb(100%,100%,100%);fill-opacity:1;" d="M 77.785156 124.605469 C 77.835938 123.324219 78.164062 122.070312 78.753906 120.929688 L 78.753906 120.90625 C 78.765625 120.882812 78.765625 120.855469 78.757812 120.832031 C 78.75 120.808594 78.730469 120.789062 78.707031 120.777344 C 78.660156 120.753906 78.601562 120.773438 78.574219 120.820312 L 78.574219 120.847656 C 78.027344 121.921875 77.695312 123.09375 77.601562 124.292969 C 76.046875 121.675781 73.769531 119.191406 72.574219 118.546875 C 72.523438 118.519531 72.460938 118.539062 72.433594 118.589844 C 72.417969 118.613281 72.414062 118.640625 72.421875 118.667969 C 72.425781 118.691406 72.445312 118.714844 72.46875 118.726562 C 73.648438 119.371094 75.898438 121.828125 77.429688 124.429688 C 76.195312 123.90625 74.824219 123.816406 73.53125 124.167969 C 73.480469 124.183594 73.453125 124.238281 73.46875 124.289062 C 73.480469 124.324219 73.507812 124.347656 73.546875 124.355469 L 73.59375 124.355469 C 74.925781 123.996094 76.34375 124.125 77.59375 124.722656 C 78.261719 125.8125 78.730469 127.015625 78.976562 128.269531 C 78.980469 128.3125 79.007812 128.34375 79.042969 128.359375 L 79.09375 128.359375 C 79.144531 128.351562 79.183594 128.300781 79.179688 128.246094 C 79.035156 127.121094 78.5 125.855469 77.785156 124.605469 Z M 77.785156 124.605469 "/>
<path style=" stroke:none;fill-rule:nonzero;fill:rgb(70.196078%,8.235294%,40%);fill-opacity:1;" d="M 36.992188 91.304688 L 36.992188 93.863281 C 36.992188 94.113281 37.195312 94.3125 37.441406 94.3125 C 37.691406 94.3125 37.894531 94.113281 37.894531 93.863281 L 37.894531 91.304688 Z M 36.992188 91.304688 "/>
<path style=" stroke:none;fill-rule:nonzero;fill:rgb(14.901961%,19.607843%,21.960784%);fill-opacity:1;" d="M 37.890625 79.144531 C 37.890625 78.894531 37.6875 78.691406 37.441406 78.691406 C 37.191406 78.691406 36.988281 78.894531 36.988281 79.144531 L 36.988281 91.304688 L 37.890625 91.304688 Z M 37.890625 79.144531 "/>
<path style=" stroke:none;fill-rule:nonzero;fill:rgb(14.901961%,19.607843%,21.960784%);fill-opacity:1;" d="M 38.980469 78.28125 C 38.863281 78.15625 38.6875 78.109375 38.523438 78.15625 C 38.359375 78.203125 38.238281 78.339844 38.207031 78.507812 C 38.175781 78.675781 38.242188 78.847656 38.378906 78.949219 L 46.480469 86.25 L 47.117188 85.613281 Z M 38.980469 78.28125 "/>
<path style=" stroke:none;fill-rule:nonzero;fill:rgb(70.196078%,8.235294%,40%);fill-opacity:1;" d="M 48.535156 86.910156 L 47.101562 85.613281 L 46.460938 86.25 L 47.929688 87.574219 C 48.011719 87.652344 48.121094 87.691406 48.230469 87.691406 C 48.359375 87.691406 48.480469 87.640625 48.566406 87.546875 C 48.730469 87.359375 48.71875 87.078125 48.535156 86.910156 Z M 48.535156 86.910156 "/>
<path style=" stroke:none;fill-rule:nonzero;fill:rgb(70.196078%,8.235294%,40%);fill-opacity:1;" d="M 26.347656 86.910156 C 26.164062 87.078125 26.152344 87.359375 26.316406 87.546875 C 26.402344 87.640625 26.523438 87.691406 26.652344 87.691406 C 26.761719 87.691406 26.871094 87.652344 26.953125 87.574219 L 28.421875 86.25 L 27.785156 85.613281 Z M 26.347656 86.910156 "/>
<path style=" stroke:none;fill-rule:nonzero;fill:rgb(14.901961%,19.607843%,21.960784%);fill-opacity:1;" d="M 36.539062 78.316406 C 36.460938 78.226562 36.347656 78.171875 36.230469 78.164062 C 36.109375 78.160156 35.992188 78.203125 35.902344 78.28125 L 27.785156 85.613281 L 28.421875 86.25 L 36.523438 78.949219 C 36.699219 78.777344 36.707031 78.496094 36.539062 78.316406 Z M 36.539062 78.316406 "/>
<path style=" stroke:none;fill-rule:nonzero;fill:rgb(21.568627%,27.843137%,30.980392%);fill-opacity:1;" d="M 40.089844 78.015625 L 34.800781 78.015625 L 34.800781 79.546875 C 34.800781 79.941406 35.0625 80.335938 35.582031 80.632812 C 36.757812 81.230469 38.152344 81.230469 39.328125 80.632812 C 39.839844 80.335938 40.097656 79.941406 40.09375 79.546875 Z M 40.089844 78.015625 "/>
<path style=" stroke:none;fill-rule:nonzero;fill:rgb(27.058824%,35.294118%,39.215686%);fill-opacity:1;" d="M 39.300781 76.933594 C 40.335938 77.53125 40.339844 78.5 39.300781 79.097656 C 38.125 79.699219 36.730469 79.699219 35.554688 79.097656 C 34.519531 78.496094 34.511719 77.527344 35.554688 76.933594 C 36.730469 76.332031 38.125 76.332031 39.300781 76.933594 Z M 39.300781 76.933594 "/>
<path style=" stroke:none;fill-rule:nonzero;fill:rgb(14.901961%,19.607843%,21.960784%);fill-opacity:1;" d="M 36.691406 21.964844 L 36.691406 77.851562 C 36.707031 77.984375 36.792969 78.097656 36.910156 78.152344 C 37.246094 78.324219 37.640625 78.324219 37.972656 78.152344 C 38.09375 78.097656 38.175781 77.984375 38.191406 77.851562 L 38.191406 21.964844 Z M 36.691406 21.964844 "/>
<path style=" stroke:none;fill-rule:nonzero;fill:rgb(27.058824%,35.294118%,39.215686%);fill-opacity:1;" d="M 12.949219 34.96875 L 12.949219 83.0625 L 61.507812 55.03125 L 61.507812 6.722656 Z M 12.949219 34.96875 "/>
<path style=" stroke:none;fill-rule:nonzero;fill:rgb(98.039216%,98.039216%,98.039216%);fill-opacity:1;" d="M 14.746094 36 L 59.707031 9.851562 L 59.707031 53.992188 L 14.746094 79.949219 Z M 14.746094 36 "/>
<path style=" stroke:none;fill-rule:nonzero;fill:rgb(14.901961%,19.607843%,21.960784%);fill-opacity:1;" d="M 14.316406 34.199219 C 15.121094 34.722656 15.625 35.597656 15.675781 36.554688 C 15.675781 37.417969 15.074219 37.753906 14.308594 37.332031 C 13.503906 36.808594 13 35.933594 12.949219 34.976562 C 12.949219 34.101562 13.5625 33.753906 14.316406 34.199219 Z M 14.316406 34.199219 "/>
<path style=" stroke:none;fill-rule:nonzero;fill:rgb(21.568627%,27.843137%,30.980392%);fill-opacity:1;" d="M 64.5 8.167969 C 64.5 8.144531 64.5 8.125 64.5 8.101562 C 64.5 8.082031 64.5 8.082031 64.5 8.074219 L 64.5 8.058594 C 64.5 8.058594 64.5 8.042969 64.5 8.035156 C 64.5 8.011719 64.5 7.988281 64.5 7.96875 C 64.5 7.945312 64.5 7.921875 64.5 7.898438 C 64.5 7.878906 64.5 7.855469 64.5 7.832031 C 64.5 7.808594 64.5 7.789062 64.5 7.765625 C 64.5 7.753906 64.5 7.746094 64.5 7.738281 L 64.5 7.691406 L 64.480469 7.621094 C 64.476562 7.601562 64.46875 7.585938 64.46875 7.566406 L 64.46875 7.546875 C 64.46875 7.523438 64.46875 7.5 64.441406 7.476562 C 64.4375 7.453125 64.429688 7.429688 64.417969 7.40625 L 64.417969 7.363281 L 64.390625 7.300781 C 64.390625 7.28125 64.378906 7.265625 64.371094 7.25 L 64.371094 7.199219 C 64.359375 7.179688 64.351562 7.15625 64.339844 7.132812 L 64.304688 7.0625 C 64.304688 7.039062 64.285156 7.023438 64.273438 7.003906 L 64.214844 6.898438 L 64.214844 6.886719 L 64.175781 6.824219 L 64.121094 6.738281 C 64.09375 6.695312 64.066406 6.65625 64.035156 6.613281 C 64.015625 6.589844 63.996094 6.5625 63.976562 6.535156 L 63.925781 6.472656 L 63.871094 6.410156 L 63.820312 6.355469 L 63.722656 6.257812 L 63.703125 6.242188 L 63.675781 6.214844 L 63.613281 6.160156 L 63.589844 6.140625 L 63.566406 6.125 L 63.507812 6.078125 L 63.460938 6.046875 L 63.40625 6.011719 L 63.347656 5.976562 L 63.332031 5.976562 L 63.289062 5.953125 L 63.234375 5.921875 L 63.199219 5.921875 L 63.140625 5.898438 L 63.085938 5.878906 L 63.03125 5.878906 L 62.976562 5.863281 L 62.917969 5.863281 C 62.898438 5.859375 62.878906 5.859375 62.859375 5.863281 L 62.664062 5.863281 L 62.398438 5.699219 L 62.382812 5.699219 L 62.304688 5.722656 L 62.203125 5.769531 L 13.34375 34.09375 C 13.375 34.070312 13.414062 34.054688 13.449219 34.042969 C 13.476562 34.03125 13.503906 34.023438 13.53125 34.019531 L 13.660156 34.019531 C 13.691406 34.015625 13.726562 34.015625 13.761719 34.019531 L 13.875 34.035156 L 13.996094 34.070312 L 14.125 34.125 L 14.257812 34.195312 C 14.304688 34.222656 14.347656 34.25 14.394531 34.28125 C 14.4375 34.3125 14.476562 34.339844 14.515625 34.375 C 14.554688 34.40625 14.59375 34.441406 14.632812 34.476562 L 14.644531 34.476562 L 14.761719 34.589844 C 14.800781 34.632812 14.839844 34.675781 14.875 34.722656 C 14.910156 34.765625 14.949219 34.816406 14.984375 34.867188 C 15.019531 34.90625 15.046875 34.957031 15.082031 35 L 15.136719 35.089844 L 15.179688 35.164062 C 15.1875 35.175781 15.191406 35.1875 15.199219 35.199219 L 15.269531 35.324219 L 15.269531 35.339844 C 15.296875 35.390625 15.320312 35.445312 15.34375 35.5 C 15.367188 35.554688 15.390625 35.605469 15.40625 35.65625 C 15.429688 35.710938 15.445312 35.765625 15.464844 35.820312 C 15.480469 35.871094 15.496094 35.921875 15.507812 35.976562 C 15.507812 36.03125 15.527344 36.085938 15.535156 36.136719 C 15.535156 36.1875 15.550781 36.242188 15.558594 36.296875 C 15.558594 36.351562 15.558594 36.402344 15.558594 36.457031 C 15.558594 36.511719 15.558594 36.554688 15.558594 36.601562 C 15.554688 36.644531 15.550781 36.6875 15.539062 36.730469 L 15.539062 36.746094 C 15.539062 36.785156 15.523438 36.820312 15.511719 36.859375 C 15.511719 36.863281 15.511719 36.871094 15.511719 36.878906 C 15.5 36.910156 15.484375 36.945312 15.472656 36.976562 C 15.453125 37.011719 15.433594 37.042969 15.417969 37.074219 L 15.363281 37.144531 L 15.34375 37.167969 C 15.34375 37.183594 15.308594 37.199219 15.289062 37.21875 L 15.269531 37.234375 C 15.246094 37.257812 15.21875 37.273438 15.1875 37.289062 L 64.113281 9.105469 C 64.140625 9.085938 64.167969 9.070312 64.191406 9.046875 L 64.210938 9.03125 L 64.285156 8.957031 C 64.304688 8.9375 64.320312 8.914062 64.339844 8.890625 C 64.359375 8.859375 64.375 8.828125 64.390625 8.796875 C 64.402344 8.777344 64.410156 8.753906 64.414062 8.734375 C 64.417969 8.722656 64.417969 8.710938 64.414062 8.699219 C 64.417969 8.691406 64.417969 8.6875 64.414062 8.679688 C 64.417969 8.671875 64.417969 8.667969 64.414062 8.660156 C 64.425781 8.640625 64.429688 8.617188 64.433594 8.59375 C 64.433594 8.582031 64.433594 8.574219 64.433594 8.566406 L 64.433594 8.519531 C 64.433594 8.519531 64.433594 8.503906 64.433594 8.492188 L 64.433594 8.429688 C 64.433594 8.417969 64.433594 8.402344 64.433594 8.390625 L 64.433594 8.363281 C 64.433594 8.34375 64.433594 8.320312 64.433594 8.296875 L 64.433594 8.230469 Z M 64.5 8.167969 "/>
<path style=" stroke:none;fill-rule:nonzero;fill:rgb(70.196078%,8.235294%,40%);fill-opacity:1;" d="M 18.503906 47.933594 L 23.304688 48.347656 L 23.320312 54.714844 C 20.261719 56.480469 17.773438 55.066406 17.761719 51.546875 C 17.785156 50.308594 18.039062 49.082031 18.503906 47.933594 Z M 18.503906 47.933594 "/>
<path style=" stroke:none;fill-rule:nonzero;fill:rgb(70.196078%,8.235294%,40%);fill-opacity:1;" d="M 26.074219 41.222656 C 27.730469 41.371094 28.84375 42.785156 28.851562 45.140625 C 28.851562 48.660156 26.386719 52.941406 23.328125 54.714844 L 23.308594 48.34375 L 26.050781 41.257812 Z M 26.074219 41.222656 "/>
<path style=" stroke:none;fill-rule:nonzero;fill:rgb(70.196078%,8.235294%,40%);fill-opacity:1;" d="M 23.292969 41.980469 C 24.117188 41.453125 25.085938 41.195312 26.066406 41.234375 L 26.066406 41.269531 L 23.308594 48.347656 L 18.511719 47.933594 C 19.457031 45.480469 21.242188 43.164062 23.292969 41.980469 Z M 23.292969 41.980469 "/>
<use xlink:href="#surface11" mask="url(#mask2)"/>
<path style=" stroke:none;fill-rule:nonzero;fill:rgb(70.196078%,8.235294%,40%);fill-opacity:1;" d="M 18.503906 47.933594 L 23.304688 48.347656 L 23.320312 54.714844 C 20.261719 56.480469 17.773438 55.066406 17.761719 51.546875 C 17.785156 50.308594 18.039062 49.082031 18.503906 47.933594 Z M 18.503906 47.933594 "/>
<path style=" stroke:none;fill-rule:nonzero;fill:rgb(87.843137%,87.843137%,87.843137%);fill-opacity:1;" d="M 20.695312 65.816406 L 20.699219 66.863281 L 17.816406 68.527344 L 17.8125 67.480469 Z M 20.695312 65.816406 "/>
<path style=" stroke:none;fill-rule:nonzero;fill:rgb(87.843137%,87.843137%,87.843137%);fill-opacity:1;" d="M 22.011719 60.871094 L 22.015625 61.917969 L 17.804688 64.347656 L 17.800781 63.304688 Z M 22.011719 60.871094 "/>
<path style=" stroke:none;fill-rule:nonzero;fill:rgb(87.843137%,87.843137%,87.843137%);fill-opacity:1;" d="M 27.105469 60.027344 L 27.109375 61.070312 L 17.8125 66.4375 L 17.808594 65.390625 Z M 27.105469 60.027344 "/>
<path style=" stroke:none;fill-rule:nonzero;fill:rgb(87.843137%,87.843137%,87.843137%);fill-opacity:1;" d="M 42.246094 49.191406 L 42.25 50.234375 L 33.652344 55.195312 L 33.648438 54.152344 Z M 42.246094 49.191406 "/>
<use xlink:href="#surface14" mask="url(#mask3)"/>
<path style=" stroke:none;fill-rule:nonzero;fill:rgb(70.196078%,8.235294%,40%);fill-opacity:1;" d="M 32.75 36.523438 C 33.214844 36.253906 33.589844 36.46875 33.589844 37 C 33.558594 37.589844 33.25 38.125 32.753906 38.449219 C 32.292969 38.714844 31.917969 38.5 31.914062 37.96875 C 31.945312 37.378906 32.257812 36.839844 32.75 36.523438 Z M 32.75 36.523438 "/>
<path style=" stroke:none;fill-rule:nonzero;fill:rgb(70.196078%,8.235294%,40%);fill-opacity:1;" d="M 32.761719 39.839844 C 33.222656 39.574219 33.597656 39.785156 33.601562 40.320312 C 33.570312 40.90625 33.257812 41.445312 32.765625 41.765625 C 32.300781 42.03125 31.925781 41.820312 31.921875 41.285156 C 31.953125 40.699219 32.265625 40.160156 32.761719 39.839844 Z M 32.761719 39.839844 "/>
<path style=" stroke:none;fill-rule:nonzero;fill:rgb(70.196078%,8.235294%,40%);fill-opacity:1;" d="M 32.769531 43.15625 C 33.230469 42.890625 33.609375 43.105469 33.609375 43.636719 C 33.578125 44.226562 33.269531 44.761719 32.773438 45.085938 C 32.308594 45.355469 31.933594 45.136719 31.933594 44.605469 C 31.964844 44.015625 32.273438 43.476562 32.769531 43.15625 Z M 32.769531 43.15625 "/>
<path style=" stroke:none;fill-rule:nonzero;fill:rgb(70.196078%,8.235294%,40%);fill-opacity:1;" d="M 32.777344 46.476562 C 33.238281 46.210938 33.617188 46.425781 33.617188 46.957031 C 33.585938 47.542969 33.277344 48.082031 32.785156 48.402344 C 32.320312 48.667969 31.945312 48.457031 31.945312 47.925781 C 31.972656 47.335938 32.285156 46.796875 32.777344 46.476562 Z M 32.777344 46.476562 "/>
<path style=" stroke:none;fill-rule:nonzero;fill:rgb(87.843137%,87.843137%,87.843137%);fill-opacity:1;" d="M 37.46875 34.207031 L 37.472656 35.308594 L 34.714844 36.902344 L 34.714844 35.796875 Z M 37.46875 34.207031 "/>
<path style=" stroke:none;fill-rule:nonzero;fill:rgb(87.843137%,87.843137%,87.843137%);fill-opacity:1;" d="M 41.152344 32.078125 L 41.152344 33.1875 L 38.398438 34.777344 L 38.398438 33.671875 Z M 41.152344 32.078125 "/>
<path style=" stroke:none;fill-rule:nonzero;fill:rgb(87.843137%,87.843137%,87.843137%);fill-opacity:1;" d="M 42.222656 41.4375 L 42.226562 42.539062 L 38.257812 44.832031 L 38.257812 43.726562 Z M 42.222656 41.4375 "/>
<path style=" stroke:none;fill-rule:nonzero;fill:rgb(87.843137%,87.843137%,87.843137%);fill-opacity:1;" d="M 39.792969 39.511719 L 39.796875 40.621094 L 34.734375 43.542969 L 34.730469 42.433594 Z M 39.792969 39.511719 "/>
<path style=" stroke:none;fill-rule:nonzero;fill:rgb(87.843137%,87.843137%,87.843137%);fill-opacity:1;" d="M 38.207031 37.105469 L 38.210938 38.207031 L 34.726562 40.222656 L 34.722656 39.117188 Z M 38.207031 37.105469 "/>
<path style=" stroke:none;fill-rule:nonzero;fill:rgb(87.843137%,87.843137%,87.843137%);fill-opacity:1;" d="M 37.496094 44.164062 L 37.5 45.269531 L 34.746094 46.859375 L 34.742188 45.757812 Z M 37.496094 44.164062 "/>
<path style=" stroke:none;fill-rule:nonzero;fill:rgb(87.843137%,87.843137%,87.843137%);fill-opacity:1;" d="M 29.332031 60.835938 L 29.335938 61.878906 L 22.164062 66.019531 L 22.160156 64.972656 Z M 29.332031 60.835938 "/>
<path style=" stroke:none;fill-rule:nonzero;fill:rgb(87.843137%,87.843137%,87.843137%);fill-opacity:1;" d="M 25.574219 56.722656 L 25.582031 57.769531 L 17.800781 62.257812 L 17.800781 61.210938 Z M 25.574219 56.722656 "/>
<path style=" stroke:none;fill-rule:nonzero;fill:rgb(87.843137%,87.843137%,87.843137%);fill-opacity:1;" d="M 42.253906 51.28125 L 42.253906 52.324219 L 38.425781 54.535156 L 38.421875 53.492188 Z M 42.253906 51.28125 "/>
<path style=" stroke:none;fill-rule:nonzero;fill:rgb(87.843137%,87.843137%,87.843137%);fill-opacity:1;" d="M 42.257812 53.371094 L 42.261719 54.417969 L 37.039062 57.429688 L 37.039062 56.382812 Z M 42.257812 53.371094 "/>
<path style=" stroke:none;fill-rule:nonzero;fill:rgb(87.843137%,87.843137%,87.843137%);fill-opacity:1;" d="M 49.589844 44.949219 L 49.59375 45.992188 L 45.382812 48.421875 L 45.382812 47.378906 Z M 49.589844 44.949219 "/>
<path style=" stroke:none;fill-rule:nonzero;fill:rgb(87.843137%,87.843137%,87.843137%);fill-opacity:1;" d="M 56.421875 41.007812 L 56.425781 42.050781 L 50.773438 45.3125 L 50.773438 44.269531 Z M 56.421875 41.007812 "/>
<path style=" stroke:none;fill-rule:nonzero;fill:rgb(70.196078%,8.235294%,40%);fill-opacity:1;" d="M 49.292969 31.253906 L 49.320312 40.65625 L 47.746094 41.566406 L 47.71875 32.164062 Z M 49.292969 31.253906 "/>
<path style=" stroke:none;fill-rule:nonzero;fill:rgb(70.196078%,8.235294%,40%);fill-opacity:1;" d="M 51.660156 31.453125 L 51.683594 39.292969 L 50.109375 40.203125 L 50.085938 32.367188 Z M 51.660156 31.453125 "/>
<path style=" stroke:none;fill-rule:nonzero;fill:rgb(70.196078%,8.235294%,40%);fill-opacity:1;" d="M 54.011719 26.558594 L 54.046875 37.929688 L 52.46875 38.839844 L 52.4375 27.46875 Z M 54.011719 26.558594 "/>
<path style=" stroke:none;fill-rule:nonzero;fill:rgb(70.196078%,8.235294%,40%);fill-opacity:1;" d="M 56.371094 23.242188 L 56.410156 36.5625 L 54.835938 37.472656 L 54.796875 24.152344 Z M 56.371094 23.242188 "/>
<path style=" stroke:none;fill-rule:nonzero;fill:rgb(87.843137%,87.843137%,87.843137%);fill-opacity:1;" d="M 48.273438 49.894531 L 48.277344 50.941406 L 45.394531 52.605469 L 45.394531 51.558594 Z M 48.273438 49.894531 "/>
<path style=" stroke:none;fill-rule:nonzero;fill:rgb(87.843137%,87.843137%,87.843137%);fill-opacity:1;" d="M 35.574219 57.226562 L 35.574219 58.273438 L 30.796875 61.03125 L 30.796875 59.988281 Z M 35.574219 57.226562 "/>
<path style=" stroke:none;fill-rule:nonzero;fill:rgb(87.843137%,87.843137%,87.843137%);fill-opacity:1;" d="M 36.957031 54.339844 L 36.957031 55.382812 L 28.570312 60.226562 L 28.570312 59.179688 Z M 36.957031 54.339844 "/>
<path style=" stroke:none;fill-rule:nonzero;fill:rgb(87.843137%,87.843137%,87.843137%);fill-opacity:1;" d="M 33.046875 52.40625 L 33.050781 53.453125 L 27.046875 56.917969 L 27.042969 55.875 Z M 33.046875 52.40625 "/>
<path style=" stroke:none;fill-rule:nonzero;fill:rgb(87.843137%,87.843137%,87.843137%);fill-opacity:1;" d="M 32.179688 55.003906 L 32.183594 56.046875 L 23.480469 61.070312 L 23.476562 60.027344 Z M 32.179688 55.003906 "/>
<path style=" stroke:none;fill-rule:nonzero;fill:rgb(87.843137%,87.843137%,87.843137%);fill-opacity:1;" d="M 56.433594 45.1875 L 56.4375 46.230469 L 49.742188 50.09375 L 49.738281 49.050781 Z M 56.433594 45.1875 "/>
<path style=" stroke:none;fill-rule:nonzero;fill:rgb(87.843137%,87.843137%,87.843137%);fill-opacity:1;" d="M 56.425781 43.097656 L 56.429688 44.140625 L 45.390625 50.515625 L 45.386719 49.46875 Z M 56.425781 43.097656 "/>
<path style=" stroke:none;fill-rule:nonzero;fill:rgb(87.843137%,87.843137%,87.843137%);fill-opacity:1;" d="M 53.152344 40.796875 L 53.15625 41.84375 L 45.378906 46.335938 L 45.375 45.289062 Z M 53.152344 40.796875 "/>
<path style=" stroke:none;fill-rule:nonzero;fill:rgb(22.352941%,35.294118%,39.607843%);fill-opacity:1;" d="M 56.410156 37.351562 L 56.410156 37.894531 L 45.386719 44.261719 L 45.382812 43.714844 Z M 56.410156 37.351562 "/>
<path style=" stroke:none;fill-rule:nonzero;fill:rgb(70.196078%,8.235294%,40%);fill-opacity:1;" d="M 46.941406 36.496094 L 46.960938 42.019531 L 45.382812 42.929688 L 45.367188 37.402344 Z M 46.941406 36.496094 "/>
<path style=" stroke:none;fill-rule:nonzero;fill:rgb(94.901961%,56.078431%,56.078431%);fill-opacity:1;" d="M 129.515625 56.058594 C 129.082031 60.886719 129.453125 61.382812 126.171875 61.136719 L 126.171875 56.058594 Z M 129.515625 56.058594 "/>
<path style=" stroke:none;fill-rule:nonzero;fill:rgb(21.568627%,27.843137%,30.980392%);fill-opacity:1;" d="M 125.953125 47.398438 C 128.863281 47.214844 131.28125 48.207031 129.730469 56.53125 C 128.308594 57.304688 125.953125 56.878906 125.953125 56.878906 Z M 125.953125 47.398438 "/>
<path style=" stroke:none;fill-rule:nonzero;fill:rgb(14.901961%,19.607843%,21.960784%);fill-opacity:1;" d="M 120.574219 104.074219 C 120.367188 104.730469 119.652344 105.105469 118.96875 105.160156 C 118.285156 105.214844 117.609375 105.019531 116.933594 104.898438 C 115.433594 104.625 113.96875 104.898438 112.460938 104.863281 C 111.96875 104.863281 111.480469 104.808594 111 104.699219 C 110.511719 104.589844 110.074219 104.332031 109.738281 103.960938 C 109.550781 103.734375 109.425781 103.460938 109.378906 103.171875 C 109.316406 103.613281 109.449219 104.0625 109.738281 104.402344 C 110.074219 104.773438 110.515625 105.03125 111 105.144531 C 111.480469 105.253906 111.976562 105.308594 112.46875 105.304688 C 113.96875 105.339844 115.433594 105.066406 116.941406 105.34375 C 117.617188 105.460938 118.292969 105.640625 118.976562 105.601562 C 119.660156 105.558594 120.378906 105.175781 120.585938 104.519531 C 120.648438 104.292969 120.667969 104.058594 120.640625 103.824219 C 120.625 103.910156 120.605469 103.992188 120.574219 104.074219 Z M 120.574219 104.074219 "/>
<path style=" stroke:none;fill-rule:nonzero;fill:rgb(21.568627%,27.843137%,30.980392%);fill-opacity:1;" d="M 120.535156 102.824219 C 120.445312 102.367188 120.351562 101.910156 120.261719 101.453125 C 120.226562 101.207031 120.144531 100.972656 120.027344 100.753906 C 119.90625 100.539062 119.675781 100.40625 119.425781 100.402344 C 118.601562 100.296875 117.4375 99.996094 116.75 100.46875 C 115.664062 101.214844 114.367188 101.589844 113.050781 101.542969 C 112.367188 101.515625 111.683594 101.375 111.003906 101.460938 C 110.320312 101.542969 109.621094 101.921875 109.414062 102.574219 C 109.359375 102.769531 109.347656 102.976562 109.382812 103.175781 C 109.429688 103.464844 109.554688 103.738281 109.742188 103.964844 C 110.074219 104.335938 110.515625 104.589844 111 104.699219 C 111.480469 104.8125 111.976562 104.867188 112.46875 104.863281 C 113.96875 104.898438 115.433594 104.625 116.941406 104.898438 C 117.617188 105.019531 118.292969 105.199219 118.976562 105.160156 C 119.660156 105.121094 120.378906 104.730469 120.585938 104.074219 C 120.609375 103.992188 120.628906 103.910156 120.640625 103.824219 C 120.65625 103.488281 120.621094 103.152344 120.535156 102.824219 Z M 120.535156 102.824219 "/>
<path style=" stroke:none;fill-rule:nonzero;fill:rgb(100%,65.882353%,65.490196%);fill-opacity:1;" d="M 116.539062 99.03125 L 116.476562 100.828125 C 116.464844 101.210938 116.753906 101.535156 117.136719 101.5625 C 117.734375 101.605469 118.335938 101.597656 118.933594 101.542969 C 119.4375 101.5 119.828125 101.089844 119.855469 100.585938 L 119.929688 99.265625 Z M 116.539062 99.03125 "/>
<path style=" stroke:none;fill-rule:nonzero;fill:rgb(14.901961%,19.607843%,21.960784%);fill-opacity:1;" d="M 128.210938 98.078125 C 128.203125 98.34375 128.121094 98.601562 127.972656 98.820312 C 127.757812 99.078125 127.457031 99.246094 127.128906 99.292969 C 126.320312 99.433594 125.503906 99.097656 125.027344 98.433594 C 124.804688 98.105469 124.675781 97.722656 124.464844 97.390625 C 124.140625 96.945312 123.742188 96.558594 123.289062 96.25 C 122.835938 95.9375 122.4375 95.554688 122.105469 95.113281 C 121.789062 94.675781 121.707031 94.113281 121.878906 93.601562 C 121.835938 93.660156 121.800781 93.726562 121.769531 93.792969 C 121.566406 94.332031 121.644531 94.933594 121.980469 95.402344 C 122.3125 95.855469 122.71875 96.25 123.179688 96.570312 C 123.644531 96.890625 124.050781 97.289062 124.378906 97.75 C 124.597656 98.089844 124.726562 98.488281 124.957031 98.824219 C 125.4375 99.511719 126.269531 99.859375 127.09375 99.722656 C 127.433594 99.671875 127.738281 99.5 127.957031 99.234375 C 128.148438 98.925781 128.238281 98.566406 128.203125 98.203125 C 128.21875 98.15625 128.214844 98.117188 128.210938 98.078125 Z M 128.210938 98.078125 "/>
<path style=" stroke:none;fill-rule:nonzero;fill:rgb(21.568627%,27.843137%,30.980392%);fill-opacity:1;" d="M 127.671875 95.835938 C 127.125 94.882812 126.007812 94.191406 125.140625 93.515625 C 124.667969 93.105469 124.085938 92.839844 123.464844 92.753906 C 122.832031 92.679688 122.214844 92.992188 121.90625 93.550781 C 121.90625 93.566406 121.90625 93.585938 121.882812 93.601562 C 121.710938 94.113281 121.796875 94.675781 122.113281 95.113281 C 122.441406 95.554688 122.839844 95.9375 123.292969 96.25 C 123.75 96.558594 124.148438 96.945312 124.46875 97.390625 C 124.683594 97.722656 124.808594 98.105469 125.035156 98.433594 C 125.511719 99.097656 126.328125 99.433594 127.132812 99.292969 C 127.464844 99.246094 127.765625 99.078125 127.976562 98.820312 C 128.128906 98.601562 128.210938 98.34375 128.21875 98.078125 C 128.222656 97.992188 128.222656 97.90625 128.21875 97.820312 C 128.203125 97.125 128.015625 96.441406 127.671875 95.835938 Z M 127.671875 95.835938 "/>
<path style=" stroke:none;fill-rule:nonzero;fill:rgb(100%,65.882353%,65.490196%);fill-opacity:1;" d="M 125.3125 95.011719 L 125.3125 96.636719 C 126.125 97.015625 127.070312 96.972656 127.84375 96.523438 L 127.996094 95.0625 Z M 125.3125 95.011719 "/>
<path style=" stroke:none;fill-rule:nonzero;fill:rgb(27.058824%,35.294118%,39.215686%);fill-opacity:1;" d="M 128.421875 65.527344 C 128.90625 66.988281 128.308594 73.929688 128.023438 80.597656 C 129.082031 83.117188 128.796875 90.265625 128.1875 95.347656 C 128.1875 95.347656 127.132812 95.992188 125.21875 95.347656 L 122.820312 81.328125 L 122.488281 73.40625 C 122.488281 73.40625 121.890625 80.4375 121.195312 84.945312 C 121.84375 88.398438 121.683594 89.050781 120.078125 99.667969 C 118.945312 100.238281 117.609375 100.238281 116.476562 99.667969 C 115.578125 84.746094 115.90625 71.148438 116.074219 66.257812 Z M 128.421875 65.527344 "/>
<path style=" stroke:none;fill-rule:nonzero;fill:rgb(70.196078%,8.235294%,40%);fill-opacity:1;" d="M 115.800781 54.316406 L 115.800781 66.664062 C 123.070312 69.710938 127.78125 66.964844 128.425781 65.527344 C 128.089844 60.5 129.277344 54.621094 129.1875 52.121094 C 129.097656 49.621094 128.785156 46.808594 124.914062 47.371094 L 120.796875 47.773438 L 118.695312 48.28125 Z M 115.800781 54.316406 "/>
<path style=" stroke:none;fill-rule:nonzero;fill:rgb(14.901961%,19.607843%,21.960784%);fill-opacity:1;" d="M 118.34375 38.164062 C 117.460938 37.832031 116.597656 36.5625 117.484375 36.007812 C 117.730469 35.824219 118.445312 36.035156 119.023438 36.007812 C 118.519531 35.546875 118.394531 34.996094 118.648438 34.828125 C 118.90625 34.65625 119.585938 35.304688 120.820312 35.179688 C 122.050781 35.058594 126.304688 33.679688 126.835938 36.796875 C 126.960938 36.582031 127.175781 36.433594 127.421875 36.394531 C 127.667969 36.355469 127.917969 36.429688 128.101562 36.601562 L 127.199219 37.199219 C 128.511719 39.042969 128.085938 41.175781 124.910156 45.390625 C 124.148438 46.324219 122.800781 46.523438 121.800781 45.847656 L 120.488281 42.613281 L 119.210938 41.0625 Z M 118.34375 38.164062 "/>
<path style=" stroke:none;fill-rule:nonzero;fill:rgb(94.901961%,56.078431%,56.078431%);fill-opacity:1;" d="M 118.050781 40.746094 L 117.199219 42.230469 L 118.132812 42.574219 Z M 118.050781 40.746094 "/>
<path style=" stroke:none;fill-rule:nonzero;fill:rgb(100%,65.882353%,65.490196%);fill-opacity:1;" d="M 118.34375 38.164062 C 117.777344 40.21875 117.695312 42.375 118.101562 44.464844 C 118.144531 44.828125 118.28125 45.167969 118.492188 45.464844 C 118.773438 45.765625 119.164062 45.945312 119.578125 45.964844 C 119.984375 45.976562 120.394531 45.9375 120.792969 45.847656 L 120.792969 47.773438 C 122.257812 48.121094 123.761719 48.257812 124.910156 47.371094 L 124.910156 45.398438 C 124.085938 45.664062 123.203125 45.71875 122.351562 45.558594 C 121.339844 45.011719 121.152344 43.15625 121.28125 42.679688 C 121.464844 42.921875 121.777344 43.03125 122.074219 42.953125 C 122.355469 42.878906 122.589844 42.6875 122.730469 42.433594 C 122.863281 42.175781 122.945312 41.898438 122.972656 41.613281 C 123.046875 41.265625 122.992188 40.90625 122.824219 40.597656 C 122.558594 40.242188 122.101562 40.085938 121.675781 40.210938 C 121.261719 40.339844 120.914062 40.628906 120.714844 41.015625 C 120.644531 41.132812 120.589844 41.257812 120.542969 41.386719 C 120.507812 41.488281 120.40625 41.554688 120.296875 41.539062 C 120.1875 41.527344 120.105469 41.4375 120.097656 41.328125 C 120.050781 40.773438 120.152344 40.214844 120.398438 39.714844 C 120.058594 39.679688 119.753906 39.492188 119.570312 39.207031 C 119.375 38.941406 119.316406 38.597656 119.410156 38.28125 C 119.050781 38.304688 118.691406 38.265625 118.34375 38.164062 Z M 118.34375 38.164062 "/>
<use xlink:href="#surface17" mask="url(#mask4)"/>
<path style=" stroke:none;fill-rule:nonzero;fill:rgb(100%,65.882353%,65.490196%);fill-opacity:1;" d="M 115.800781 63.097656 L 115.800781 59.496094 L 117.039062 57.15625 L 113.304688 54.835938 L 111.328125 58.835938 C 111.007812 59.484375 110.996094 60.246094 111.289062 60.90625 C 111.585938 61.570312 112.164062 62.0625 112.863281 62.257812 Z M 115.800781 63.097656 "/>
<path style=" stroke:none;fill-rule:nonzero;fill:rgb(94.901961%,56.078431%,56.078431%);fill-opacity:1;" d="M 115.796875 59.5 L 114.523438 61.371094 L 115.796875 60.835938 Z M 115.796875 59.5 "/>
<path style=" stroke:none;fill-rule:nonzero;fill:rgb(21.568627%,27.843137%,30.980392%);fill-opacity:1;" d="M 118.699219 48.28125 L 117.757812 48.417969 C 116.460938 48.605469 115.347656 49.453125 114.824219 50.65625 L 112.820312 55.277344 C 114.367188 57.742188 117.339844 57.554688 117.339844 57.554688 L 119.367188 53.632812 C 120.265625 51.886719 120 49.769531 118.699219 48.300781 Z M 118.699219 48.28125 "/>
<path style=" stroke:none;fill-rule:nonzero;fill:rgb(100%,65.882353%,65.490196%);fill-opacity:1;" d="M 95.746094 41.328125 L 96.75 40.585938 C 97.0625 40.351562 97.300781 40.035156 97.429688 39.667969 L 97.667969 39.019531 C 97.832031 38.570312 98.125 38.179688 98.507812 37.894531 C 99.082031 37.472656 99.597656 36.976562 100.042969 36.421875 C 100.339844 36.742188 100.367188 37.230469 100.109375 37.585938 C 99.925781 37.835938 99.726562 38.070312 99.511719 38.292969 L 100.0625 38.328125 C 100.460938 38.355469 100.859375 38.261719 101.199219 38.050781 L 102.601562 37.199219 C 102.683594 37.152344 102.785156 37.148438 102.867188 37.195312 C 102.953125 37.242188 103.003906 37.328125 103.003906 37.425781 C 102.984375 38.117188 102.847656 38.804688 102.601562 39.453125 C 102.367188 40.078125 101.875 40.570312 101.25 40.800781 C 100.507812 41.085938 99.78125 41.332031 99.367188 41.46875 C 99.132812 41.546875 98.910156 41.664062 98.710938 41.8125 L 97.238281 42.898438 Z M 95.746094 41.328125 "/>
<path style=" stroke:none;fill-rule:nonzero;fill:rgb(21.568627%,27.843137%,30.980392%);fill-opacity:1;" d="M 96.835938 40.359375 L 95.570312 41.175781 C 95.65625 42.136719 96.289062 42.964844 97.199219 43.289062 L 98.359375 42.191406 C 98.359375 42.191406 97.242188 42.019531 96.835938 40.359375 Z M 96.835938 40.359375 "/>
<path style=" stroke:none;fill-rule:nonzero;fill:rgb(27.058824%,35.294118%,39.215686%);fill-opacity:1;" d="M 96.042969 42.425781 C 95.777344 42.058594 95.613281 41.625 95.570312 41.175781 L 91.617188 43.726562 L 89.28125 37.199219 C 88.96875 36.328125 88.195312 35.707031 87.277344 35.585938 L 86.140625 35.4375 L 87.199219 43.085938 L 89.019531 46.730469 C 89.347656 47.390625 89.960938 47.867188 90.683594 48.019531 C 91.40625 48.175781 92.160156 47.992188 92.730469 47.523438 L 97.199219 43.289062 C 96.738281 43.121094 96.335938 42.820312 96.042969 42.425781 Z M 96.042969 42.425781 "/>
<path style=" stroke:none;fill-rule:nonzero;fill:rgb(27.058824%,35.294118%,39.215686%);fill-opacity:1;" d="M 91.199219 85.183594 C 90.707031 85.65625 90.035156 85.90625 89.347656 85.863281 C 88.671875 85.816406 88.011719 85.652344 87.394531 85.371094 C 86.769531 85.113281 85.984375 84.394531 85.292969 84.40625 C 84.632812 84.402344 83.972656 84.355469 83.316406 84.269531 C 83.292969 83.367188 83.386719 82.46875 83.59375 81.589844 L 86.753906 81.507812 C 87.605469 82.675781 89.265625 83.644531 90.519531 84.011719 C 90.914062 84.121094 91.210938 84.441406 91.300781 84.839844 C 91.300781 84.847656 91.300781 84.855469 91.300781 84.859375 C 91.28125 84.972656 91.246094 85.082031 91.199219 85.183594 Z M 91.199219 85.183594 "/>
<path style=" stroke:none;fill-rule:nonzero;fill:rgb(14.901961%,19.607843%,21.960784%);fill-opacity:1;" d="M 85.292969 84.40625 C 85.972656 84.40625 86.757812 85.113281 87.394531 85.371094 C 88.011719 85.652344 88.671875 85.816406 89.347656 85.863281 C 90.035156 85.90625 90.707031 85.65625 91.199219 85.183594 C 91.25 85.082031 91.289062 84.972656 91.308594 84.859375 C 91.308594 84.855469 91.308594 84.847656 91.308594 84.839844 C 91.339844 84.980469 91.339844 85.125 91.308594 85.261719 C 91.285156 85.375 91.25 85.480469 91.199219 85.585938 C 90.703125 86.058594 90.035156 86.304688 89.347656 86.265625 C 88.671875 86.21875 88.007812 86.050781 87.394531 85.769531 C 86.769531 85.511719 85.984375 84.792969 85.292969 84.808594 C 84.640625 84.8125 83.992188 84.773438 83.347656 84.691406 C 83.332031 84.550781 83.320312 84.410156 83.316406 84.269531 C 83.972656 84.355469 84.632812 84.402344 85.292969 84.40625 Z M 85.292969 84.40625 "/>
<path style=" stroke:none;fill-rule:nonzero;fill:rgb(14.901961%,19.607843%,21.960784%);fill-opacity:1;" d="M 76.378906 85.480469 C 76.375 85.800781 76.40625 86.121094 76.46875 86.4375 C 76.570312 86.996094 76.886719 87.496094 77.347656 87.835938 C 77.769531 88.074219 78.25 88.203125 78.738281 88.207031 C 79.167969 88.25 79.601562 88.203125 80.011719 88.074219 C 80.320312 87.964844 80.582031 87.753906 80.757812 87.472656 C 80.757812 87.480469 80.757812 87.484375 80.757812 87.488281 C 80.636719 87.910156 80.316406 88.25 79.898438 88.390625 C 79.488281 88.519531 79.054688 88.566406 78.628906 88.519531 C 78.136719 88.519531 77.660156 88.390625 77.234375 88.148438 C 76.773438 87.8125 76.460938 87.3125 76.359375 86.753906 C 76.292969 86.4375 76.261719 86.117188 76.261719 85.792969 C 76.261719 85.351562 76.074219 84.925781 75.75 84.625 C 75.671875 84.550781 75.597656 84.472656 75.527344 84.394531 C 75.425781 84.277344 75.378906 84.128906 75.390625 83.976562 C 75.390625 83.914062 75.390625 83.855469 75.40625 83.800781 C 75.523438 83.933594 75.796875 84.257812 75.867188 84.324219 C 76.1875 84.625 76.371094 85.039062 76.378906 85.480469 Z M 76.378906 85.480469 "/>
<path style=" stroke:none;fill-rule:nonzero;fill:rgb(27.058824%,35.294118%,39.215686%);fill-opacity:1;" d="M 78.792969 82.144531 C 78.6875 82.800781 78.773438 83.472656 79.039062 84.085938 C 79.304688 84.691406 79.648438 85.257812 80.066406 85.773438 C 80.269531 86.015625 80.449219 86.28125 80.605469 86.558594 C 80.753906 86.832031 80.808594 87.148438 80.757812 87.460938 C 80.582031 87.738281 80.320312 87.949219 80.011719 88.058594 C 79.601562 88.191406 79.167969 88.234375 78.738281 88.191406 C 78.25 88.1875 77.769531 88.0625 77.347656 87.820312 C 76.886719 87.484375 76.570312 86.980469 76.46875 86.421875 C 76.40625 86.105469 76.375 85.785156 76.378906 85.464844 C 76.375 85.019531 76.1875 84.597656 75.863281 84.292969 C 75.796875 84.226562 75.523438 83.902344 75.40625 83.769531 C 75.46875 83.289062 75.628906 82.828125 75.878906 82.414062 Z M 78.792969 82.144531 "/>
<path style=" stroke:none;fill-rule:nonzero;fill:rgb(14.901961%,19.607843%,21.960784%);fill-opacity:1;" d="M 88.121094 50.941406 L 87.859375 68.960938 L 87.007812 81.5625 C 84.859375 82.921875 83.296875 81.808594 83.296875 81.808594 C 82.480469 75.835938 82.371094 72.160156 82.816406 69.675781 L 82.410156 59.953125 L 81.183594 70.042969 L 79.125 82.417969 C 76.917969 83.851562 75.355469 82.417969 75.355469 82.417969 C 75.355469 77.839844 74.949219 72.71875 76.210938 69.414062 C 75.671875 63.3125 75.875 57.167969 76.8125 51.113281 Z M 88.121094 50.941406 "/>
<use xlink:href="#surface20" mask="url(#mask5)"/>
<path style=" stroke:none;fill-rule:nonzero;fill:rgb(21.568627%,27.843137%,30.980392%);fill-opacity:1;" d="M 84.03125 35.210938 L 86.132812 35.433594 C 87.859375 36.953125 88.75 40.144531 88.378906 43.671875 C 88.148438 46.085938 88.0625 48.515625 88.117188 50.941406 C 83.441406 54.355469 77.539062 51.871094 76.800781 51.128906 L 77.144531 46.808594 C 77.183594 46.320312 77.105469 45.832031 76.910156 45.382812 C 76.46875 44.359375 75.679688 42.34375 75.574219 40.777344 C 75.511719 39.382812 75.804688 37.996094 76.429688 36.75 L 79.5 35.414062 Z M 84.03125 35.210938 "/>
<path style=" stroke:none;fill-rule:nonzero;fill:rgb(21.568627%,27.843137%,30.980392%);fill-opacity:1;" d="M 76.917969 45.382812 C 76.339844 44.09375 75.914062 42.742188 75.648438 41.355469 C 76.082031 41.617188 76.546875 41.875 76.722656 42.308594 C 77.296875 43.703125 77.449219 45.238281 77.152344 46.71875 C 77.179688 46.261719 77.097656 45.804688 76.917969 45.382812 Z M 76.917969 45.382812 "/>
<path style=" stroke:none;fill-rule:nonzero;fill:rgb(70.196078%,8.235294%,40%);fill-opacity:1;" d="M 84.617188 38.28125 C 85.699219 40.890625 86.289062 43.675781 86.351562 46.5 L 85.5 48.375 L 84.140625 46.59375 C 84.246094 43.863281 84.191406 41.128906 83.976562 38.402344 Z M 84.617188 38.28125 "/>
<path style=" stroke:none;fill-rule:nonzero;fill:rgb(70.196078%,8.235294%,40%);fill-opacity:1;" d="M 84.691406 36.75 C 84.726562 37.261719 84.703125 37.777344 84.617188 38.28125 C 84.414062 38.382812 84.1875 38.421875 83.960938 38.402344 C 83.546875 38.035156 83.191406 37.605469 82.90625 37.132812 L 83.960938 36.75 Z M 84.691406 36.75 "/>
<path style=" stroke:none;fill-rule:nonzero;fill:rgb(21.568627%,27.843137%,30.980392%);fill-opacity:1;" d="M 83.960938 36.75 C 83.0625 37.085938 82.246094 38.699219 82.246094 38.699219 C 79.867188 36.679688 79.496094 35.398438 79.496094 35.398438 C 79.789062 34.921875 80.242188 34.5625 80.773438 34.390625 Z M 83.960938 36.75 "/>
<path style=" stroke:none;fill-rule:nonzero;fill:rgb(21.568627%,27.843137%,30.980392%);fill-opacity:1;" d="M 83.960938 36.75 C 84.652344 36.769531 85.265625 37.734375 85.265625 37.734375 C 85.378906 36.046875 83.960938 34.734375 83.960938 34.734375 Z M 83.960938 36.75 "/>
<path style=" stroke:none;fill-rule:nonzero;fill:rgb(94.901961%,56.078431%,56.078431%);fill-opacity:1;" d="M 80.722656 32.515625 L 83.960938 33.671875 L 83.960938 34.871094 C 83.230469 34.769531 82.53125 34.515625 81.90625 34.125 C 81.347656 33.730469 80.929688 33.164062 80.722656 32.515625 Z M 80.722656 32.515625 "/>
<path style=" stroke:none;fill-rule:nonzero;fill:rgb(100%,65.882353%,65.490196%);fill-opacity:1;" d="M 80.722656 32.515625 C 80.929688 33.164062 81.347656 33.730469 81.90625 34.125 C 82.53125 34.515625 83.230469 34.769531 83.960938 34.871094 L 83.960938 36.75 C 83.960938 36.75 80.535156 35.210938 80.535156 34.488281 L 80.535156 32.445312 Z M 80.722656 32.515625 "/>
<path style=" stroke:none;fill-rule:nonzero;fill:rgb(87.843137%,87.843137%,87.843137%);fill-opacity:1;" d="M 86.964844 27.757812 C 87.425781 27.773438 87.875 27.628906 88.238281 27.34375 C 88.445312 27.179688 88.617188 26.976562 88.742188 26.746094 C 88.792969 26.652344 88.78125 26.539062 88.714844 26.457031 C 88.652344 26.371094 88.546875 26.335938 88.441406 26.359375 C 88.195312 26.402344 87.9375 26.402344 87.691406 26.359375 C 88.269531 25.601562 88.519531 24.648438 88.390625 23.707031 C 88.371094 23.601562 88.308594 23.507812 88.214844 23.460938 C 88.121094 23.410156 88.007812 23.40625 87.910156 23.453125 C 86.886719 23.972656 85.746094 24.210938 84.601562 24.148438 C 84 24.105469 83.386719 23.976562 82.773438 23.929688 C 82.160156 23.855469 81.535156 23.949219 80.972656 24.203125 C 80.40625 24.46875 80.027344 25.023438 79.992188 25.648438 C 79.851562 25.453125 79.632812 25.324219 79.390625 25.300781 C 79.136719 25.265625 78.878906 25.34375 78.683594 25.507812 C 79.039062 25.699219 79.382812 25.898438 79.738281 26.089844 C 79.375 25.960938 78.917969 26.246094 78.738281 26.585938 C 78.582031 26.941406 78.515625 27.328125 78.542969 27.714844 C 78.519531 28.226562 78.542969 28.738281 78.613281 29.242188 C 78.679688 29.753906 78.878906 30.234375 79.191406 30.644531 C 79.464844 30.980469 79.832031 31.230469 80.242188 31.359375 C 80.808594 31.515625 81.40625 31.496094 81.957031 31.304688 C 82.503906 31.113281 83.023438 30.851562 83.507812 30.53125 C 84.742188 29.714844 85.898438 28.785156 86.964844 27.757812 Z M 86.964844 27.757812 "/>
<path style=" stroke:none;fill-rule:nonzero;fill:rgb(100%,65.882353%,65.490196%);fill-opacity:1;" d="M 87.042969 26.738281 C 87.394531 28.859375 87.164062 31.039062 86.367188 33.039062 C 86.222656 33.523438 85.921875 33.945312 85.511719 34.238281 C 85.0625 34.496094 84.5 34.441406 83.988281 34.363281 C 83.15625 34.269531 82.347656 34.039062 81.589844 33.6875 C 80.820312 33.324219 80.222656 32.679688 79.921875 31.886719 C 79.363281 32 78.789062 31.777344 78.460938 31.3125 C 78.132812 30.839844 77.964844 30.277344 77.976562 29.699219 C 77.976562 29.339844 78.042969 28.914062 78.367188 28.753906 C 78.695312 28.648438 79.054688 28.738281 79.292969 28.984375 C 79.722656 29.335938 80.035156 29.804688 80.191406 30.335938 C 80.429688 29.457031 80.792969 28.609375 81.039062 27.730469 C 81.097656 27.378906 81.277344 27.058594 81.550781 26.828125 C 81.921875 26.59375 82.402344 26.726562 82.828125 26.828125 C 84.214844 27.160156 85.667969 27.128906 87.042969 26.738281 Z M 87.042969 26.738281 "/>
<path style=" stroke:none;fill-rule:nonzero;fill:rgb(94.901961%,56.078431%,56.078431%);fill-opacity:1;" d="M 84.480469 29.410156 L 85.507812 31.140625 L 84.28125 31.367188 Z M 84.480469 29.410156 "/>
<path style=" stroke:none;fill-rule:nonzero;fill:rgb(94.901961%,56.078431%,56.078431%);fill-opacity:1;" d="M 83.101562 31.964844 L 84.03125 32.417969 C 83.871094 32.640625 83.578125 32.722656 83.324219 32.617188 C 83.105469 32.480469 83.011719 32.207031 83.101562 31.964844 Z M 83.101562 31.964844 "/>
<use xlink:href="#surface23" mask="url(#mask6)"/>
<path style=" stroke:none;fill-rule:nonzero;fill:rgb(94.901961%,56.078431%,56.078431%);fill-opacity:1;" d="M 83.648438 32.648438 C 83.539062 32.671875 83.425781 32.664062 83.324219 32.617188 C 83.152344 32.519531 83.054688 32.328125 83.074219 32.128906 C 83.375 32.125 83.625 32.351562 83.648438 32.648438 Z M 83.648438 32.648438 "/>
<path style=" stroke:none;fill-rule:nonzero;fill:rgb(14.901961%,19.607843%,21.960784%);fill-opacity:1;" d="M 82.703125 29.476562 C 82.683594 29.671875 82.824219 29.84375 83.015625 29.867188 C 83.210938 29.886719 83.386719 29.75 83.40625 29.554688 C 83.429688 29.363281 83.292969 29.1875 83.101562 29.164062 C 83.003906 29.152344 82.910156 29.179688 82.835938 29.238281 C 82.761719 29.296875 82.714844 29.382812 82.703125 29.476562 Z M 82.703125 29.476562 "/>
<path style=" stroke:none;fill-rule:nonzero;fill:rgb(14.901961%,19.607843%,21.960784%);fill-opacity:1;" d="M 85.65625 29.660156 C 85.640625 29.804688 85.714844 29.941406 85.839844 30.007812 C 85.964844 30.078125 86.121094 30.0625 86.230469 29.972656 C 86.34375 29.882812 86.386719 29.734375 86.347656 29.597656 C 86.304688 29.460938 86.1875 29.359375 86.042969 29.347656 C 85.847656 29.328125 85.675781 29.46875 85.65625 29.660156 Z M 85.65625 29.660156 "/>
<path style=" stroke:none;fill-rule:nonzero;fill:rgb(87.843137%,87.843137%,87.843137%);fill-opacity:1;" d="M 86.140625 28.300781 L 86.859375 28.902344 C 86.949219 28.710938 86.910156 28.484375 86.761719 28.335938 C 86.578125 28.207031 86.335938 28.195312 86.140625 28.300781 Z M 86.140625 28.300781 "/>
<path style=" stroke:none;fill-rule:nonzero;fill:rgb(87.843137%,87.843137%,87.843137%);fill-opacity:1;" d="M 83.140625 27.957031 L 82.3125 28.414062 C 82.261719 28.210938 82.34375 28 82.519531 27.882812 C 82.722656 27.789062 82.964844 27.816406 83.140625 27.957031 Z M 83.140625 27.957031 "/>
<path style=" stroke:none;fill-rule:nonzero;fill:rgb(100%,65.882353%,65.490196%);fill-opacity:1;" d="M 69.273438 44.359375 L 68.152344 43.800781 C 67.808594 43.625 67.519531 43.355469 67.324219 43.019531 L 66.972656 42.421875 C 66.730469 42.011719 66.375 41.679688 65.945312 41.46875 C 65.304688 41.152344 64.710938 40.757812 64.171875 40.289062 C 63.9375 40.664062 63.996094 41.148438 64.3125 41.449219 C 64.542969 41.660156 64.785156 41.855469 65.042969 42.03125 L 64.507812 42.167969 C 64.121094 42.265625 63.710938 42.242188 63.339844 42.097656 L 61.804688 41.5 C 61.714844 41.460938 61.613281 41.480469 61.539062 41.542969 C 61.460938 41.605469 61.429688 41.703125 61.449219 41.800781 C 61.589844 42.480469 61.84375 43.128906 62.207031 43.722656 C 62.542969 44.292969 63.113281 44.695312 63.765625 44.8125 C 64.546875 44.960938 65.304688 45.074219 65.734375 45.136719 C 65.980469 45.171875 66.21875 45.246094 66.441406 45.355469 L 68.085938 46.171875 Z M 69.273438 44.359375 "/>
<path style=" stroke:none;fill-rule:nonzero;fill:rgb(27.058824%,35.294118%,39.215686%);fill-opacity:1;" d="M 70.339844 46.078125 C 70.53125 45.621094 70.601562 45.117188 70.53125 44.621094 L 72.632812 45.617188 C 73.019531 44.085938 73.316406 42.539062 73.53125 40.972656 C 73.785156 38.859375 73.726562 37.4375 76.445312 36.75 L 76.746094 42.308594 C 76.746094 42.308594 76.414062 49.097656 74.464844 49.851562 C 72.851562 50.472656 71.710938 48.949219 69.253906 47.347656 C 69.734375 47.046875 70.113281 46.605469 70.339844 46.078125 Z M 70.339844 46.078125 "/>
<path style=" stroke:none;fill-rule:nonzero;fill:rgb(21.568627%,27.843137%,30.980392%);fill-opacity:1;" d="M 68.601562 43.9375 L 70.53125 44.621094 C 70.6875 45.710938 70.171875 46.785156 69.226562 47.347656 C 68.664062 46.960938 68.128906 46.535156 67.625 46.070312 C 67.625 46.070312 68.464844 45.777344 68.601562 43.9375 Z M 68.601562 43.9375 "/>
<path style=" stroke:none;fill-rule:nonzero;fill:rgb(90.196078%,70.980392%,89.411765%);fill-opacity:1;" d="M 87.449219 111.886719 L 108.746094 99.566406 L 122.605469 107.632812 L 101.503906 119.890625 Z M 87.449219 111.886719 "/>
<path style=" stroke:none;fill-rule:nonzero;fill:rgb(70.196078%,8.235294%,40%);fill-opacity:1;" d="M 87.449219 128.65625 L 87.449219 111.886719 L 101.503906 119.890625 L 101.503906 136.769531 Z M 87.449219 128.65625 "/>
<path style=" stroke:none;fill-rule:nonzero;fill:rgb(70.196078%,8.235294%,40%);fill-opacity:1;" d="M 101.503906 136.769531 L 122.605469 124.511719 L 122.605469 107.632812 L 101.503906 119.890625 Z M 101.503906 136.769531 "/>
<use xlink:href="#surface26" mask="url(#mask7)"/>
<path style=" stroke:none;fill-rule:nonzero;fill:rgb(70.196078%,8.235294%,40%);fill-opacity:1;" d="M 85.828125 109.984375 L 109.09375 96.535156 L 124.222656 105.34375 L 101.175781 118.730469 Z M 85.828125 109.984375 "/>
<path style=" stroke:none;fill-rule:nonzero;fill:rgb(70.196078%,8.235294%,40%);fill-opacity:1;" d="M 85.828125 112.160156 L 85.828125 109.984375 L 101.175781 118.730469 L 101.175781 121.019531 Z M 85.828125 112.160156 "/>
<path style=" stroke:none;fill-rule:nonzero;fill:rgb(70.196078%,8.235294%,40%);fill-opacity:1;" d="M 101.175781 121.019531 L 124.222656 107.632812 L 124.222656 105.34375 L 101.175781 118.730469 Z M 101.175781 121.019531 "/>
<use xlink:href="#surface29" mask="url(#mask8)"/>
<use xlink:href="#surface32" mask="url(#mask9)"/>
<use xlink:href="#surface35" mask="url(#mask10)"/>
<path style=" stroke:none;fill-rule:nonzero;fill:rgb(21.568627%,27.843137%,30.980392%);fill-opacity:1;" d="M 98.992188 97.171875 L 104.195312 94.144531 L 105.871094 95.058594 L 100.523438 98.152344 Z M 98.992188 97.171875 "/>
<path style=" stroke:none;fill-rule:nonzero;fill:rgb(14.901961%,19.607843%,21.960784%);fill-opacity:1;" d="M 98.992188 97.171875 L 98.992188 101.601562 L 100.492188 102.511719 L 100.523438 98.152344 Z M 98.992188 97.171875 "/>
<path style=" stroke:none;fill-rule:nonzero;fill:rgb(27.058824%,35.294118%,39.215686%);fill-opacity:1;" d="M 91.144531 103.570312 L 107.785156 93.949219 L 118.609375 100.253906 L 102.121094 109.828125 Z M 91.144531 103.570312 "/>
<path style=" stroke:none;fill-rule:nonzero;fill:rgb(14.901961%,19.607843%,21.960784%);fill-opacity:1;" d="M 101.933594 98.953125 L 108.070312 95.402344 L 112.066406 97.726562 L 105.984375 101.261719 Z M 101.933594 98.953125 "/>
<path style=" stroke:none;fill-rule:nonzero;fill:rgb(21.568627%,27.843137%,30.980392%);fill-opacity:1;" d="M 91.144531 108.890625 L 91.144531 103.570312 L 102.121094 109.828125 L 102.121094 115.230469 Z M 91.144531 108.890625 "/>
<path style=" stroke:none;fill-rule:nonzero;fill:rgb(14.901961%,19.607843%,21.960784%);fill-opacity:1;" d="M 102.121094 115.230469 L 118.609375 105.652344 L 118.609375 100.253906 L 102.121094 109.828125 Z M 102.121094 115.230469 "/>
<path style=" stroke:none;fill-rule:nonzero;fill:rgb(14.901961%,19.607843%,21.960784%);fill-opacity:1;" d="M 100.730469 111.96875 C 100.835938 112.035156 100.902344 112.144531 100.910156 112.269531 C 100.910156 112.382812 100.828125 112.429688 100.730469 112.375 L 95.890625 109.582031 C 95.789062 109.515625 95.722656 109.402344 95.710938 109.28125 C 95.710938 109.167969 95.792969 109.121094 95.890625 109.179688 Z M 100.730469 111.96875 "/>
<path style=" stroke:none;fill-rule:nonzero;fill:rgb(14.901961%,19.607843%,21.960784%);fill-opacity:1;" d="M 100.734375 111.300781 C 100.835938 111.367188 100.902344 111.476562 100.910156 111.601562 C 100.910156 111.714844 100.828125 111.757812 100.730469 111.703125 L 95.894531 108.898438 C 95.792969 108.832031 95.726562 108.722656 95.714844 108.601562 C 95.714844 108.484375 95.796875 108.441406 95.894531 108.496094 Z M 100.734375 111.300781 "/>
<path style=" stroke:none;fill-rule:nonzero;fill:rgb(14.901961%,19.607843%,21.960784%);fill-opacity:1;" d="M 100.726562 112.648438 C 100.832031 112.714844 100.898438 112.824219 100.90625 112.945312 C 100.90625 113.0625 100.828125 113.109375 100.726562 113.050781 L 95.890625 110.257812 C 95.785156 110.191406 95.71875 110.082031 95.710938 109.960938 C 95.710938 109.84375 95.792969 109.800781 95.890625 109.855469 Z M 100.726562 112.648438 "/>
<path style=" stroke:none;fill-rule:nonzero;fill:rgb(14.901961%,19.607843%,21.960784%);fill-opacity:1;" d="M 100.734375 110.613281 C 100.835938 110.679688 100.902344 110.789062 100.914062 110.914062 C 100.914062 111.027344 100.832031 111.070312 100.734375 111.015625 L 95.894531 108.222656 C 95.792969 108.15625 95.726562 108.042969 95.714844 107.921875 C 95.707031 107.875 95.726562 107.828125 95.769531 107.804688 C 95.808594 107.777344 95.863281 107.785156 95.898438 107.816406 Z M 100.734375 110.613281 "/>
<path style=" stroke:none;fill-rule:nonzero;fill:rgb(0%,0%,0%);fill-opacity:1;" d="M 103.515625 111.96875 C 103.410156 112.035156 103.34375 112.144531 103.335938 112.269531 C 103.335938 112.382812 103.414062 112.429688 103.515625 112.375 L 110.15625 108.527344 C 110.261719 108.460938 110.328125 108.351562 110.335938 108.226562 C 110.335938 108.113281 110.257812 108.070312 110.15625 108.125 Z M 103.515625 111.96875 "/>
<path style=" stroke:none;fill-rule:nonzero;fill:rgb(0%,0%,0%);fill-opacity:1;" d="M 103.5 111.300781 C 103.398438 111.367188 103.332031 111.476562 103.324219 111.601562 C 103.324219 111.714844 103.402344 111.757812 103.503906 111.703125 L 110.144531 107.855469 C 110.25 107.789062 110.3125 107.679688 110.320312 107.554688 C 110.320312 107.441406 110.242188 107.394531 110.140625 107.449219 Z M 103.5 111.300781 "/>
<path style=" stroke:none;fill-rule:nonzero;fill:rgb(0%,0%,0%);fill-opacity:1;" d="M 103.519531 112.648438 C 103.414062 112.710938 103.347656 112.824219 103.339844 112.945312 C 103.339844 113.0625 103.417969 113.109375 103.519531 113.050781 L 110.160156 109.207031 C 110.261719 109.140625 110.328125 109.027344 110.339844 108.90625 C 110.339844 108.792969 110.257812 108.746094 110.15625 108.804688 Z M 103.519531 112.648438 "/>
<path style=" stroke:none;fill-rule:nonzero;fill:rgb(0%,0%,0%);fill-opacity:1;" d="M 103.5 110.613281 C 103.394531 110.679688 103.328125 110.789062 103.320312 110.914062 C 103.320312 111.027344 103.402344 111.070312 103.5 111.015625 L 110.140625 107.167969 C 110.246094 107.101562 110.3125 106.992188 110.320312 106.867188 C 110.320312 106.753906 110.242188 106.710938 110.140625 106.765625 Z M 103.5 110.613281 "/>
<path style=" stroke:none;fill-rule:nonzero;fill:rgb(0%,0%,0%);fill-opacity:1;" d="M 111.238281 107.515625 C 111.136719 107.582031 111.070312 107.695312 111.058594 107.816406 C 111.058594 107.929688 111.140625 107.980469 111.238281 107.921875 L 117.882812 104.101562 C 117.984375 104.03125 118.050781 103.921875 118.0625 103.800781 C 118.0625 103.6875 117.980469 103.640625 117.882812 103.699219 Z M 111.238281 107.515625 "/>
<path style=" stroke:none;fill-rule:nonzero;fill:rgb(0%,0%,0%);fill-opacity:1;" d="M 111.238281 106.839844 C 111.132812 106.90625 111.070312 107.015625 111.058594 107.140625 C 111.058594 107.257812 111.140625 107.300781 111.238281 107.242188 L 117.882812 103.398438 C 117.984375 103.332031 118.050781 103.21875 118.058594 103.097656 C 118.058594 102.984375 117.976562 102.9375 117.878906 102.992188 Z M 111.238281 106.839844 "/>
<path style=" stroke:none;fill-rule:nonzero;fill:rgb(0%,0%,0%);fill-opacity:1;" d="M 111.242188 108.195312 C 111.136719 108.261719 111.070312 108.371094 111.0625 108.496094 C 111.0625 108.609375 111.144531 108.65625 111.242188 108.601562 L 117.898438 104.761719 C 118.003906 104.695312 118.070312 104.585938 118.078125 104.464844 C 118.078125 104.347656 118 104.304688 117.898438 104.359375 Z M 111.242188 108.195312 "/>
<path style=" stroke:none;fill-rule:nonzero;fill:rgb(0%,0%,0%);fill-opacity:1;" d="M 111.238281 106.160156 C 111.132812 106.226562 111.066406 106.339844 111.058594 106.460938 C 111.058594 106.574219 111.136719 106.621094 111.238281 106.5625 L 117.878906 102.71875 C 117.980469 102.648438 118.046875 102.539062 118.058594 102.417969 C 118.058594 102.304688 117.976562 102.253906 117.878906 102.316406 Z M 111.238281 106.160156 "/>
<path style=" stroke:none;fill-rule:nonzero;fill:rgb(21.568627%,27.843137%,30.980392%);fill-opacity:1;" d="M 51.5625 121.03125 C 52.765625 122.226562 54.265625 123.082031 55.90625 123.507812 C 56.378906 123.628906 56.933594 123.769531 57.109375 124.226562 C 57.28125 124.683594 56.984375 125.128906 56.617188 125.425781 C 56.003906 125.84375 55.253906 126.011719 54.519531 125.902344 C 53.796875 125.785156 53.09375 125.582031 52.417969 125.300781 C 51.742188 125.023438 51.027344 124.839844 50.296875 124.761719 C 49.953125 124.757812 49.605469 124.738281 49.261719 124.699219 C 48.914062 124.660156 48.601562 124.472656 48.394531 124.191406 C 48.394531 122.089844 48.941406 121.328125 48.941406 121.328125 Z M 51.5625 121.03125 "/>
<path style=" stroke:none;fill-rule:nonzero;fill:rgb(54.901961%,29.803922%,29.803922%);fill-opacity:1;" d="M 51.601562 120.097656 L 51.601562 121.527344 C 50.640625 122.578125 49.117188 121.878906 48.929688 121.320312 L 48.882812 120.097656 Z M 51.601562 120.097656 "/>
<path style=" stroke:none;fill-rule:nonzero;fill:rgb(21.568627%,27.843137%,30.980392%);fill-opacity:1;" d="M 44.4375 114.980469 C 46.144531 113.4375 47.089844 113.5 47.503906 113.808594 C 47.914062 114.117188 48.652344 115.105469 46.761719 116.773438 C 44.867188 118.441406 45.011719 119.472656 43.695312 119.472656 C 42.378906 119.472656 42.625 118.15625 42.625 118.15625 C 42.640625 117.699219 42.710938 117.246094 42.832031 116.804688 Z M 44.4375 114.980469 "/>
<path style=" stroke:none;fill-rule:nonzero;fill:rgb(54.901961%,29.803922%,29.803922%);fill-opacity:1;" d="M 45.054688 115.972656 L 45.054688 116.980469 C 44.25 117.667969 42.902344 117.277344 42.832031 116.800781 L 42.898438 115.800781 Z M 45.054688 115.972656 "/>
<path style=" stroke:none;fill-rule:nonzero;fill:rgb(27.058824%,35.294118%,39.215686%);fill-opacity:1;" d="M 52.875 87.9375 L 53.613281 105.472656 L 51.601562 120.097656 C 50.527344 120.785156 48.882812 120.097656 48.882812 120.097656 C 48.664062 115.597656 47.683594 109.21875 48.457031 105.804688 L 46.972656 96.378906 L 46.5 103.949219 C 46.414062 108.394531 45.265625 113.128906 45.058594 115.972656 C 44.351562 116.246094 43.554688 116.183594 42.898438 115.800781 C 42.234375 109.886719 40.917969 106.699219 42.179688 102.476562 C 41.300781 94.519531 40.550781 89.578125 41.65625 87.5625 Z M 52.875 87.9375 "/>
<use xlink:href="#surface38" mask="url(#mask11)"/>
<path style=" stroke:none;fill-rule:nonzero;fill:rgb(96.078431%,96.078431%,96.078431%);fill-opacity:1;" d="M 49.46875 71.515625 L 44.296875 70.824219 C 42.132812 70.613281 41.203125 72.988281 41.230469 75.183594 C 41.246094 76.476562 42.132812 81.398438 42.558594 84.78125 C 41.703125 86.84375 40.847656 89.480469 40.847656 91.144531 C 44.785156 94.511719 52.132812 92.074219 53.003906 91.054688 C 53.003906 85.65625 52.59375 77.519531 52.59375 77.519531 Z M 49.46875 71.515625 "/>
<path style=" stroke:none;fill-rule:nonzero;fill:rgb(38.823529%,17.254902%,17.254902%);fill-opacity:1;" d="M 52.222656 65.277344 L 53.03125 66.679688 L 52.144531 67.007812 Z M 52.222656 65.277344 "/>
<path style=" stroke:none;fill-rule:nonzero;fill:rgb(54.901961%,29.803922%,29.803922%);fill-opacity:1;" d="M 52.3125 64.648438 C 52.183594 63.417969 51.824219 62.25 51.019531 61.664062 C 51.238281 63.199219 50.910156 64.757812 50.097656 66.074219 C 50.015625 65.667969 49.804688 65.296875 49.496094 65.019531 C 49.191406 64.726562 48.746094 64.628906 48.347656 64.773438 C 48.082031 64.902344 47.875 65.125 47.773438 65.402344 C 47.554688 65.945312 47.675781 66.5625 48.074219 66.988281 C 48.476562 67.410156 49.085938 67.566406 49.640625 67.378906 C 49.414062 68.5 48.546875 69.378906 47.433594 69.617188 C 46.714844 69.765625 45.96875 69.695312 45.289062 69.417969 L 44.953125 71.074219 C 46.308594 72.519531 48.617188 71.550781 48.617188 71.550781 L 48.917969 69.914062 C 51.578125 70.074219 51.828125 70.027344 52.117188 68.5625 C 52.363281 67.273438 52.429688 65.957031 52.3125 64.648438 Z M 52.3125 64.648438 "/>
<path style=" stroke:none;fill-rule:nonzero;fill:rgb(14.901961%,19.607843%,21.960784%);fill-opacity:1;" d="M 52.632812 61.695312 C 52.148438 60.601562 51.226562 59.757812 50.09375 59.375 C 48.96875 59.003906 47.769531 58.910156 46.601562 59.109375 C 45.871094 59.191406 45.160156 59.398438 44.503906 59.722656 C 43.839844 60.0625 43.300781 60.597656 42.960938 61.261719 L 42.820312 60.125 C 42.539062 60.191406 42.3125 60.398438 42.222656 60.675781 C 42.144531 60.96875 42.222656 61.28125 42.429688 61.507812 L 42.324219 61.507812 C 40.351562 61.507812 38.753906 63.105469 38.757812 65.074219 L 38.757812 71.132812 C 40.691406 71.132812 42.257812 69.5625 42.257812 67.628906 L 42.257812 66.238281 C 42.695312 67.269531 43.390625 68.171875 44.273438 68.863281 C 44.585938 69.089844 44.925781 69.277344 45.289062 69.417969 C 45.96875 69.695312 46.714844 69.765625 47.433594 69.617188 C 48.546875 69.378906 49.414062 68.5 49.640625 67.378906 C 49.085938 67.566406 48.476562 67.410156 48.074219 66.988281 C 47.675781 66.5625 47.554688 65.945312 47.773438 65.402344 C 47.875 65.125 48.082031 64.902344 48.347656 64.773438 C 48.746094 64.628906 49.191406 64.726562 49.496094 65.019531 C 49.804688 65.296875 50.015625 65.667969 50.097656 66.074219 C 50.910156 64.757812 51.238281 63.199219 51.019531 61.664062 C 51.824219 62.265625 52.183594 63.417969 52.3125 64.648438 C 52.910156 63.78125 53.03125 62.671875 52.632812 61.695312 Z M 52.632812 61.695312 "/>
<path style=" stroke:none;fill-rule:nonzero;fill:rgb(90.196078%,90.196078%,90.196078%);fill-opacity:1;" d="M 49.535156 75.839844 L 52.640625 78.085938 C 52.699219 78.808594 52.726562 80.285156 52.78125 81.917969 C 52.273438 81.34375 51.847656 80.617188 51.394531 79.992188 C 50.503906 78.746094 49.871094 77.335938 49.535156 75.839844 Z M 49.535156 75.839844 "/>
<path style=" stroke:none;fill-rule:nonzero;fill:rgb(70.196078%,8.235294%,40%);fill-opacity:1;" d="M 66.644531 67.363281 L 63.011719 77.890625 L 55.5 73.726562 L 59.09375 63.316406 Z M 66.644531 67.363281 "/>
<path style=" stroke:none;fill-rule:nonzero;fill:rgb(100%,100%,100%);fill-opacity:1;" d="M 56.617188 73.300781 L 59.605469 64.628906 L 65.527344 67.804688 L 62.503906 76.5625 Z M 56.617188 73.300781 "/>
<path style=" stroke:none;fill-rule:nonzero;fill:rgb(27.058824%,35.294118%,39.215686%);fill-opacity:1;" d="M 60.652344 65.269531 L 63.9375 66.996094 L 64.082031 66.558594 L 63.445312 65.996094 L 61.644531 65.089844 L 60.820312 64.9375 Z M 60.652344 65.269531 "/>
<path style=" stroke:none;fill-rule:nonzero;fill:rgb(21.568627%,27.843137%,30.980392%);fill-opacity:1;" d="M 61.644531 65.089844 L 61.785156 64.757812 L 63.542969 65.699219 L 63.445312 65.996094 Z M 61.644531 65.089844 "/>
<path style=" stroke:none;fill-rule:nonzero;fill:rgb(27.058824%,35.294118%,39.215686%);fill-opacity:1;" d="M 60.765625 64.210938 L 64.738281 66.34375 L 64.910156 65.929688 L 60.898438 63.824219 Z M 60.765625 64.210938 "/>
<path style=" stroke:none;fill-rule:nonzero;fill:rgb(21.568627%,27.843137%,30.980392%);fill-opacity:1;" d="M 61.839844 64.316406 C 62.1875 63.222656 64.261719 64.253906 63.859375 65.375 Z M 61.839844 64.316406 "/>
<path style=" stroke:none;fill-rule:nonzero;fill:rgb(54.901961%,29.803922%,29.803922%);fill-opacity:1;" d="M 54.964844 75.859375 L 57.734375 79.460938 L 62.554688 74.722656 C 62.824219 74.457031 62.996094 74.109375 63.042969 73.734375 C 63.273438 71.933594 63.769531 70.652344 64.410156 70.878906 C 64.8125 71.019531 64.296875 72.769531 64.296875 72.769531 L 64.894531 72.425781 L 65.59375 70.398438 L 65.914062 70.398438 C 66.253906 70.398438 66.554688 70.613281 66.667969 70.933594 L 66.96875 71.800781 C 67.332031 72.855469 66.96875 74.023438 66.070312 74.683594 L 65.011719 75.46875 C 64.855469 75.585938 64.722656 75.734375 64.621094 75.898438 C 62.949219 78.46875 61.058594 80.882812 58.96875 83.125 C 58.484375 83.613281 57.71875 83.691406 57.144531 83.308594 C 54.195312 81.359375 51.757812 78.066406 51.757812 78.066406 Z M 54.964844 75.859375 "/>
<path style=" stroke:none;fill-rule:nonzero;fill:rgb(70.196078%,8.235294%,40%);fill-opacity:1;" d="M 49.46875 71.515625 L 49.9375 71.574219 C 51.496094 71.761719 52.914062 72.570312 53.871094 73.816406 L 57.402344 78.414062 C 57.246094 80.066406 56.046875 81.429688 54.425781 81.796875 L 50.546875 77.699219 C 48.519531 75.484375 49.46875 71.515625 49.46875 71.515625 Z M 49.46875 71.515625 "/>
</g>
</svg>
